<svg xmlns="http://www.w3.org/2000/svg" viewBox="0 0 500 500"><g id="freepik--Shadows--inject-127"><path id="freepik--Shadow--inject-127" d="M347.58,448.75l95.14-55c1.59-.91,1.59-2.4,0-3.31L266.05,288.08a6.33,6.33,0,0,0-5.75,0l-95.14,55c-1.58.92-1.58,2.4,0,3.32L341.84,448.75A6.31,6.31,0,0,0,347.58,448.75Z" style="fill:#e0e0e0"></path><path id="freepik--shadow--inject-127" d="M124.38,413.15l80.15-46.32c1.33-.77,1.33-2,0-2.79L115,312.13a5.3,5.3,0,0,0-4.84,0L30,358.45c-1.33.77-1.33,2,0,2.79l89.51,51.91A5.3,5.3,0,0,0,124.38,413.15Z" style="fill:#e0e0e0"></path><ellipse id="freepik--shadow--inject-127" cx="138.08" cy="410.95" rx="79.79" ry="46.07" style="fill:#e0e0e0"></ellipse><path id="freepik--shadow--inject-127" d="M443.43,425.22a9.52,9.52,0,0,1-1.53,3.57,17,17,0,0,1-5.76,5.11c-10,5.75-26.11,5.75-36.07,0a16.9,16.9,0,0,1-5.76-5.11,9.69,9.69,0,0,1-1.53-3.57h0c-.89-4.32,1.54-8.83,7.29-12.14,10-5.76,26.11-5.76,36.07,0C441.89,416.39,444.32,420.9,443.43,425.22Z" style="fill:#e0e0e0"></path></g><g id="freepik--Desk--inject-127"><g id="freepik--desk--inject-127"><g id="freepik--desk--inject-127"><polygon points="335.05 325.39 330.12 322.53 331.74 426.52 335.05 428.43 335.05 325.39" style="fill:#37474f"></polygon><polygon points="335.05 325.39 339.98 322.53 338.35 426.52 335.05 428.43 335.05 325.39" style="fill:#263238"></polygon><polygon points="202.85 249.07 197.92 246.21 199.55 350.2 202.85 352.1 202.85 249.07" style="fill:#37474f"></polygon><polygon points="202.85 249.07 207.79 246.21 206.16 350.2 202.85 352.1 202.85 249.07" style="fill:#263238"></polygon><polygon points="401.14 287.23 396.21 284.37 397.83 388.36 401.14 390.27 401.14 287.23" style="fill:#37474f"></polygon><polygon points="401.14 287.23 406.07 284.37 404.44 388.36 401.14 390.27 401.14 287.23" style="fill:#263238"></polygon><polygon points="268.94 210.91 264.01 208.05 265.64 312.04 268.94 313.94 268.94 210.91" style="fill:#37474f"></polygon><polygon points="268.94 210.91 273.88 208.05 272.25 312.04 268.94 313.94 268.94 210.91" style="fill:#263238"></polygon><g id="freepik--desk--inject-127"><path d="M442,277.43v-4.25a2.41,2.41,0,0,0-1.1-1.89L262.08,168.05a2.42,2.42,0,0,0-2.19,0l-94.24,54.52a2.43,2.43,0,0,0-1.09,1.9v4.25a2.43,2.43,0,0,0,1.09,1.89L344.43,333.85a2.42,2.42,0,0,0,2.19,0l94.23-54.52A2.42,2.42,0,0,0,442,277.43Z" style="fill:#BA68C8"></path><path d="M442,277.43v-4.25a2.41,2.41,0,0,0-1.1-1.89L262.08,168.05a2.42,2.42,0,0,0-2.19,0l-94.24,54.52a2.43,2.43,0,0,0-1.09,1.9v4.25a2.43,2.43,0,0,0,1.09,1.89L344.43,333.85a2.42,2.42,0,0,0,2.19,0l94.23-54.52A2.42,2.42,0,0,0,442,277.43Z" style="fill:#fff;opacity:0.2"></path><path d="M345.52,327.34v6.77a2.32,2.32,0,0,0,1.1-.26l94.23-54.52a2.4,2.4,0,0,0,1.1-1.89v-4.26a2.42,2.42,0,0,0-.9-1.75c.4.34.33.81-.2,1.12l-94.23,54.53A2.32,2.32,0,0,1,345.52,327.34Z" style="fill:#BA68C8"></path><path d="M440.85,272.55l-94.23,54.52a2.42,2.42,0,0,1-2.19,0L165.65,223.83a.67.67,0,0,1,0-1.26l94.24-54.52a2.42,2.42,0,0,1,2.19,0L440.85,271.29A.66.66,0,0,1,440.85,272.55Z" style="fill:#BA68C8"></path><path d="M440.85,272.55l-94.23,54.52a2.42,2.42,0,0,1-2.19,0L165.65,223.83a.67.67,0,0,1,0-1.26l94.24-54.52a2.42,2.42,0,0,1,2.19,0L440.85,271.29A.66.66,0,0,1,440.85,272.55Z" style="fill:#fff;opacity:0.5"></path></g></g></g></g><g id="freepik--device-2--inject-127"><g id="freepik--Phone--inject-127"><g id="freepik--shadow--inject-127"><path d="M332.77,273.86l37.55-21.41a3.2,3.2,0,0,1,2.86,0L411,274.28a.88.88,0,0,1,0,1.66L373.6,297.56a3.17,3.17,0,0,1-2.86,0l-38-22A.87.87,0,0,1,332.77,273.86Z" style="opacity:0.2"></path></g><g id="freepik--phone--inject-127"><polygon points="333.55 266.62 370.53 245.26 383.84 252.95 346.86 274.31 333.55 266.62" style="fill:#455a64"></polygon><path d="M344.73,271.44l-7.09-4.1a.59.59,0,0,1,0-1.11l7.14-4.12a2.1,2.1,0,0,1,1.92,0l7.05,4.11a.59.59,0,0,1,0,1.11l-7.1,4.1A2.16,2.16,0,0,1,344.73,271.44Z" style="fill:#263238"></path><path d="M344.78,263.5l-6.9,4,6.85,4a2.16,2.16,0,0,0,1.92,0l6.86-4-6.81-4A2.13,2.13,0,0,0,344.78,263.5Z" style="fill:#37474f"></path><path d="M370,256.87l-7.09-4.1a.59.59,0,0,1,0-1.11l7.14-4.12a2.1,2.1,0,0,1,1.92,0l7.05,4.11a.59.59,0,0,1,0,1.11l-7.09,4.1A2.16,2.16,0,0,1,370,256.87Z" style="fill:#263238"></path><path d="M371.89,256.87l6.86-4-6.81-4a2.1,2.1,0,0,0-1.92,0l-6.9,4,6.85,4A2.16,2.16,0,0,0,371.89,256.87Z" style="fill:#37474f"></path><g id="freepik--phone--inject-127"><path d="M373.41,253.81l-2.25,3.28a2.28,2.28,0,0,1-.37,0,1.7,1.7,0,0,1-.82-.22l-2.27-1.31-2.76-1.6-.82-.47,2-3.67.09-.18.11.06,3,1.74Z" style="fill:#263238"></path><path d="M378.81,250.25a.52.52,0,0,0-.07-.22.38.38,0,0,0-.07-.17,1.75,1.75,0,0,0-.29-.42l-.15-.14a3.36,3.36,0,0,0-.43-.31l-.28-.15-6.45-3.73-.2-.12-.06,0h0l-.37-.18c-.8-.34-2.86-.18-5.53,1.34S346,257,346,257a21.19,21.19,0,0,0-5.86,5.14,6.23,6.23,0,0,0-1.28,3v2.88l5.85,3.38a2,2,0,0,0,1,.23,2.06,2.06,0,0,0,.94-.21l0,0,7-4,.28-1.1.27-1.1a7.22,7.22,0,0,1,3.12-3.69l9.86-5.69a3.83,3.83,0,0,1,.57-.29c1.21-.51,2.32-.39,2.62.34l.47,1.19a2.28,2.28,0,0,0,.37,0,2,2,0,0,0,.71-.2l0,0,6.95-4v-2.27A1.79,1.79,0,0,0,378.81,250.25Z" style="fill:#455a64"></path><path d="M378.84,250.59v2.27l-6.95,4,0,0a2,2,0,0,1-.71.2,2.28,2.28,0,0,1-.37,0l-.47-1.19c-.3-.73-1.41-.85-2.62-.34a3.83,3.83,0,0,0-.57.29l-9.86,5.69a7.22,7.22,0,0,0-3.12,3.69l-.27,1.1-.28,1.1-7,4,0,0a2.06,2.06,0,0,1-.94.21V269.1a6,6,0,0,1,1.28-3,18,18,0,0,1,2.29-2.49,19.92,19.92,0,0,1,3.57-2.65l12.11-7,4.36-2.52c1.1-.64,1.95-1.13,2.41-1.38a12.55,12.55,0,0,1,2.58-1.14,4.8,4.8,0,0,1,2.95-.2l.28.12.28.15a3.36,3.36,0,0,1,.43.31l.15.14a1.75,1.75,0,0,1,.29.42.38.38,0,0,1,.07.17.52.52,0,0,1,.07.22A1.79,1.79,0,0,1,378.84,250.59Z" style="fill:#37474f"></path></g><path d="M335,270.89v2.45a1.67,1.67,0,0,0,.84,1.45l35.29,20.39a1.68,1.68,0,0,0,1.68,0l33.83-19.53a1.67,1.67,0,0,0,.84-1.45v-2.45l-34.67,20a1.68,1.68,0,0,1-1.68,0Z" style="fill:#263238"></path><polygon points="408.98 260.64 408.98 267.48 371.99 288.83 346.84 274.31 346.84 274.31 370.51 260.64 383.82 246.12 408.98 260.64" style="fill:#455a64"></polygon><path d="M395.66,275.16,372,288.83l-38.44-22.21v2.44a1.69,1.69,0,0,0,.84,1.46l36.76,21.24a1.68,1.68,0,0,0,1.68,0l35.31-20.38a1.68,1.68,0,0,0,.84-1.45v-9.29Z" style="fill:#37474f"></path><path d="M371.83,288.74l-38.28-22.12v2.44a1.69,1.69,0,0,0,.84,1.46l36.76,21.24a1.56,1.56,0,0,0,.68.22Z" style="fill:#263238"></path><path d="M371.15,291.76,335,270.89v2.45a1.67,1.67,0,0,0,.84,1.45l35.29,20.39a1.7,1.7,0,0,0,.68.22V292A1.56,1.56,0,0,1,371.15,291.76Z"></path><polygon points="408.98 260.64 383.84 247.15 370.51 260.64 383.82 246.12 408.98 260.64" style="fill:#fff;opacity:0.1"></polygon><polygon points="395.66 275.16 376.04 263.84 396.17 274.61 395.66 275.16" style="fill:#fff;opacity:0.1"></polygon><polygon points="370.51 260.64 346.86 274.31 346.38 274.03 370.51 260.64" style="fill:#263238"></polygon><polygon points="398.87 265.23 380.85 254.82 385.21 250.05 385.21 250.05 403.18 260.43 398.87 265.23" style="fill:#BA68C8"></polygon><polygon points="402.78 260.88 403.18 260.43 385.21 250.05 380.85 254.82 381.39 255.13 385.34 250.81 402.78 260.88" style="opacity:0.15"></polygon><polygon points="385.34 250.81 385.21 250.05 380.85 254.82 381.39 255.13 385.34 250.81" style="opacity:0.15"></polygon><path d="M382.9,264.86l-6.2-3.6,1.06-1.14,6.17,3.58a.36.36,0,0,1,.09.56l-.44.49A.58.58,0,0,1,382.9,264.86Z" style="fill:#fff"></path><path d="M378.19,259.89a.21.21,0,0,0-.11-.14l-1.07-.61a.38.38,0,0,0-.43.07l-.92,1a.21.21,0,0,0-.06.19c0,.06.08.35.09.41a.29.29,0,0,0,.12.15l1.06.6a.36.36,0,0,0,.43-.06l.93-1a.25.25,0,0,0,.06-.2C378.27,260.24,378.21,260,378.19,259.89Z" style="fill:#BA68C8"></path><path d="M377.13,261.6a.39.39,0,0,0,.17-.09l.93-1a.25.25,0,0,0,.06-.2c0-.06-.08-.34-.1-.41a.21.21,0,0,0-.11-.14l-1.07-.61a.31.31,0,0,0-.23,0Z" style="opacity:0.15"></path><path d="M376.78,259.11a.35.35,0,0,0-.2.1l-.92,1a.21.21,0,0,0-.06.19c0,.06.08.35.09.41a.29.29,0,0,0,.12.15l1.06.6a.34.34,0,0,0,.26,0Z" style="opacity:0.30000000000000004"></path><path d="M377.21,261.1l.92-1a.21.21,0,0,0-.05-.34l-1.06-.61a.4.4,0,0,0-.44.07l-.92,1a.21.21,0,0,0,0,.34l1.07.61A.38.38,0,0,0,377.21,261.1Z" style="fill:#BA68C8"></path><path d="M385.35,262.18l-6.19-3.6,1-1.14,6.18,3.58a.34.34,0,0,1,.08.55l-.44.5A.57.57,0,0,1,385.35,262.18Z" style="fill:#fff"></path><path d="M380.65,257.21a.19.19,0,0,0-.12-.14l-1.06-.61a.35.35,0,0,0-.43.07l-.92,1a.24.24,0,0,0-.07.2c0,.06.08.35.1.41a.23.23,0,0,0,.11.15l1.07.6a.35.35,0,0,0,.43-.07l.92-1a.2.2,0,0,0,.06-.2C380.73,257.56,380.66,257.28,380.65,257.21Z" style="fill:#BA68C8"></path><path d="M379.59,258.92a.42.42,0,0,0,.17-.1l.92-1a.2.2,0,0,0,.06-.2c0-.06-.08-.34-.09-.41a.19.19,0,0,0-.12-.14l-1.06-.61a.33.33,0,0,0-.24,0Z" style="opacity:0.15"></path><path d="M379.23,256.43a.3.3,0,0,0-.19.1l-.92,1a.24.24,0,0,0-.07.2c0,.06.08.35.1.41a.23.23,0,0,0,.11.15l1.07.6a.33.33,0,0,0,.26,0Z" style="opacity:0.30000000000000004"></path><path d="M379.66,258.42l.93-1a.21.21,0,0,0-.06-.34l-1.06-.61a.35.35,0,0,0-.43.07l-.92,1a.21.21,0,0,0,.05.35l1.06.6A.36.36,0,0,0,379.66,258.42Z" style="fill:#BA68C8"></path><path d="M393.21,270.81l-6.19-3.6,1.05-1.15,6.17,3.59a.35.35,0,0,1,.09.55l-.44.5A.58.58,0,0,1,393.21,270.81Z" style="fill:#fff"></path><path d="M388.5,265.84a.23.23,0,0,0-.11-.15l-1.06-.6a.37.37,0,0,0-.44.07l-.92,1a.25.25,0,0,0-.06.2c0,.06.08.35.09.41a.29.29,0,0,0,.12.15l1.06.6a.35.35,0,0,0,.43-.07l.93-1a.26.26,0,0,0,.06-.2C388.58,266.19,388.52,265.91,388.5,265.84Z" style="fill:#BA68C8"></path><path d="M387.44,267.55a.32.32,0,0,0,.17-.1l.93-1a.26.26,0,0,0,.06-.2c0-.06-.08-.34-.1-.41a.23.23,0,0,0-.11-.15l-1.06-.6a.4.4,0,0,0-.24,0Z" style="opacity:0.15"></path><path d="M387.09,265.05a.36.36,0,0,0-.2.11l-.92,1a.25.25,0,0,0-.06.2c0,.06.08.35.09.41a.29.29,0,0,0,.12.15l1.06.6a.39.39,0,0,0,.26,0Z" style="opacity:0.30000000000000004"></path><path d="M387.52,267l.92-1a.22.22,0,0,0-.05-.35l-1.06-.6a.37.37,0,0,0-.44.07l-.92,1a.22.22,0,0,0,.06.35l1.06.6A.35.35,0,0,0,387.52,267Z" style="fill:#BA68C8"></path><path d="M395.66,268.12l-6.19-3.59,1-1.15L396.7,267a.34.34,0,0,1,.08.55l-.44.5A.56.56,0,0,1,395.66,268.12Z" style="fill:#fff"></path><path d="M391,263.16a.22.22,0,0,0-.12-.15l-1.06-.6a.35.35,0,0,0-.43.07l-.92,1a.2.2,0,0,0-.06.2c0,.06.07.34.09.41a.19.19,0,0,0,.11.14l1.07.61a.35.35,0,0,0,.43-.07l.92-1a.21.21,0,0,0,.06-.2C391,263.51,391,263.22,391,263.16Z" style="fill:#BA68C8"></path><path d="M389.9,264.87a.42.42,0,0,0,.17-.1l.92-1a.21.21,0,0,0,.06-.2c0-.06-.08-.35-.09-.41a.22.22,0,0,0-.12-.15l-1.06-.6a.4.4,0,0,0-.24,0Z" style="opacity:0.15"></path><path d="M389.54,262.37a.37.37,0,0,0-.19.11l-.92,1a.2.2,0,0,0-.06.2c0,.06.07.34.09.41a.19.19,0,0,0,.11.14l1.07.61a.38.38,0,0,0,.26,0Z" style="opacity:0.30000000000000004"></path><path d="M390,264.36l.92-1a.22.22,0,0,0-.06-.35l-1.06-.6a.35.35,0,0,0-.43.07l-.92,1a.22.22,0,0,0,.05.35l1.06.6A.37.37,0,0,0,390,264.36Z" style="fill:#BA68C8"></path><path d="M371,263.47l-2.2,1.26a.57.57,0,0,0,0,1.07l1,.56a2.05,2.05,0,0,0,1.84,0l2.2-1.27a.56.56,0,0,0,0-1.06l-1-.56A2,2,0,0,0,371,263.47Z" style="fill:#BA68C8"></path><path d="M374,264.93a1,1,0,0,1-.22.16l-2.2,1.27a2.05,2.05,0,0,1-1.84,0l-1-.57a.83.83,0,0,1-.21-.16.51.51,0,0,1-.17-.34V266a.65.65,0,0,0,.38.53l1,.56a2,2,0,0,0,1.84,0l2.2-1.27a.65.65,0,0,0,.39-.54v-.73A.53.53,0,0,1,374,264.93Z" style="fill:#BA68C8"></path><path d="M377.21,267.07l-2.2,1.27a.56.56,0,0,0,0,1.06l1,.56a2.05,2.05,0,0,0,1.84,0l2.21-1.27c.51-.29.51-.76,0-1.06l-1-.56A2,2,0,0,0,377.21,267.07Z" style="fill:#BA68C8"></path><path d="M380.24,268.53a.83.83,0,0,1-.21.16l-2.2,1.27a2.05,2.05,0,0,1-1.84,0l-1-.56a1.92,1.92,0,0,1-.21-.16.55.55,0,0,1-.17-.35v.71a.66.66,0,0,0,.38.54l1,.55a2,2,0,0,0,1.84,0l2.2-1.27a.66.66,0,0,0,.38-.53v-.74A.53.53,0,0,1,380.24,268.53Z" style="fill:#BA68C8"></path><path d="M382.09,269.89l-2.2,1.27a.56.56,0,0,0,0,1.06l1,.56a2,2,0,0,0,1.84,0l2.21-1.27a.56.56,0,0,0,0-1.06l-1-.57A2.05,2.05,0,0,0,382.09,269.89Z" style="fill:#BA68C8"></path><path d="M385.12,271.35a1,1,0,0,1-.22.17l-2.2,1.26a2,2,0,0,1-1.84,0l-1-.56a1.92,1.92,0,0,1-.21-.16.53.53,0,0,1-.17-.34v.71a.65.65,0,0,0,.38.53l1,.56a2,2,0,0,0,1.84,0l2.2-1.27a.65.65,0,0,0,.39-.53V271A.51.51,0,0,1,385.12,271.35Z" style="fill:#BA68C8"></path><path d="M386.91,272.71l-2.2,1.27a.56.56,0,0,0,0,1.06l1,.56a2,2,0,0,0,1.84,0l2.2-1.26a.57.57,0,0,0,0-1.07l-1-.56A2.05,2.05,0,0,0,386.91,272.71Z" style="fill:#BA68C8"></path><path d="M389.93,274.17a.74.74,0,0,1-.21.17l-2.2,1.26a2.05,2.05,0,0,1-1.84,0l-1-.56a1.92,1.92,0,0,1-.21-.16.55.55,0,0,1-.17-.35v.72a.66.66,0,0,0,.38.53l1,.56a2.05,2.05,0,0,0,1.84,0l2.2-1.27a.64.64,0,0,0,.38-.53v-.73A.49.49,0,0,1,389.93,274.17Z" style="fill:#BA68C8"></path><path d="M365.75,266.47l-2.2,1.27c-.51.29-.51.76,0,1.06l1,.56a2.05,2.05,0,0,0,1.84,0l2.2-1.27a.56.56,0,0,0,0-1.06l-1-.56A2,2,0,0,0,365.75,266.47Z" style="fill:#BA68C8"></path><path d="M368.78,267.93a.73.73,0,0,1-.22.16l-2.2,1.27a2.05,2.05,0,0,1-1.84,0l-1-.56a1.92,1.92,0,0,1-.21-.16.55.55,0,0,1-.17-.35V269a.65.65,0,0,0,.38.53l1,.56a2,2,0,0,0,1.84,0l2.2-1.27a.65.65,0,0,0,.39-.53v-.74A.53.53,0,0,1,368.78,267.93Z" style="fill:#BA68C8"></path><path d="M372,270.07l-2.2,1.27a.56.56,0,0,0,0,1.06l1,.56a2.08,2.08,0,0,0,1.85,0l2.2-1.26a.57.57,0,0,0,0-1.07l-1-.56A2.05,2.05,0,0,0,372,270.07Z" style="fill:#BA68C8"></path><path d="M375,271.53a1.2,1.2,0,0,1-.21.17l-2.2,1.26a2.05,2.05,0,0,1-1.84,0l-1-.56a1.92,1.92,0,0,1-.21-.16.61.61,0,0,1-.17-.35v.71a.66.66,0,0,0,.38.54l1,.55a2,2,0,0,0,1.84,0l2.2-1.27a.66.66,0,0,0,.38-.53v-.74A.53.53,0,0,1,375,271.53Z" style="fill:#BA68C8"></path><path d="M376.89,272.89l-2.2,1.27c-.51.3-.51.77,0,1.06l1,.57a2.05,2.05,0,0,0,1.84,0l2.21-1.27a.56.56,0,0,0,0-1.06l-1-.57A2.05,2.05,0,0,0,376.89,272.89Z" style="fill:#BA68C8"></path><path d="M379.92,274.36a1.4,1.4,0,0,1-.22.16l-2.2,1.27a2.05,2.05,0,0,1-1.84,0l-1-.57a1.16,1.16,0,0,1-.21-.16.53.53,0,0,1-.17-.34v.71a.65.65,0,0,0,.38.53l1,.56a2,2,0,0,0,1.84,0l2.2-1.27a.64.64,0,0,0,.39-.53V274A.55.55,0,0,1,379.92,274.36Z" style="fill:#BA68C8"></path><path d="M381.71,275.71l-2.2,1.27a.56.56,0,0,0,0,1.06l1,.56a2,2,0,0,0,1.84,0l2.2-1.26c.51-.3.51-.77,0-1.06l-1-.57A2.05,2.05,0,0,0,381.71,275.71Z" style="fill:#BA68C8"></path><path d="M384.73,277.17a.74.74,0,0,1-.21.17l-2.2,1.26a2,2,0,0,1-1.84,0l-1-.56a1.92,1.92,0,0,1-.21-.16.55.55,0,0,1-.17-.35v.72a.66.66,0,0,0,.38.53l1,.56a2.05,2.05,0,0,0,1.84,0l2.2-1.27a.65.65,0,0,0,.39-.53v-.73A.5.5,0,0,1,384.73,277.17Z" style="fill:#BA68C8"></path><path d="M360.55,269.47l-2.2,1.27a.56.56,0,0,0,0,1.06l1,.56a2.05,2.05,0,0,0,1.84,0l2.2-1.27a.56.56,0,0,0,0-1.06l-1-.56A2,2,0,0,0,360.55,269.47Z" style="fill:#BA68C8"></path><path d="M363.58,270.93a.73.73,0,0,1-.22.16l-2.2,1.27a2.05,2.05,0,0,1-1.84,0l-1-.56a1.92,1.92,0,0,1-.21-.16.55.55,0,0,1-.17-.35V272a.65.65,0,0,0,.38.53l1,.56a2,2,0,0,0,1.84,0l2.2-1.27a.65.65,0,0,0,.39-.53v-.74A.53.53,0,0,1,363.58,270.93Z" style="fill:#BA68C8"></path><path d="M366.81,273.07l-2.2,1.27a.56.56,0,0,0,0,1.06l1,.56a2,2,0,0,0,1.85,0l2.2-1.26c.51-.3.51-.77,0-1.06l-1-.57A2.05,2.05,0,0,0,366.81,273.07Z" style="fill:#BA68C8"></path><path d="M369.84,274.53a1.2,1.2,0,0,1-.21.17l-2.2,1.26a2.05,2.05,0,0,1-1.84,0l-1-.56a1.92,1.92,0,0,1-.21-.16.61.61,0,0,1-.17-.35v.72a.66.66,0,0,0,.38.53l1,.56a2.05,2.05,0,0,0,1.84,0l2.2-1.27a.66.66,0,0,0,.38-.53v-.73A.53.53,0,0,1,369.84,274.53Z" style="fill:#BA68C8"></path><path d="M371.69,275.9l-2.2,1.26a.57.57,0,0,0,0,1.07l1,.56a2.05,2.05,0,0,0,1.84,0l2.21-1.27a.56.56,0,0,0,0-1.06l-1-.56A2,2,0,0,0,371.69,275.9Z" style="fill:#BA68C8"></path><path d="M374.72,277.36a1,1,0,0,1-.22.16l-2.2,1.27a2.05,2.05,0,0,1-1.84,0l-1-.57a.83.83,0,0,1-.21-.16.51.51,0,0,1-.17-.34v.71a.65.65,0,0,0,.38.53l1,.56a2,2,0,0,0,1.84,0l2.2-1.27a.67.67,0,0,0,.39-.54V277A.53.53,0,0,1,374.72,277.36Z" style="fill:#BA68C8"></path><path d="M376.51,278.71l-2.2,1.27a.56.56,0,0,0,0,1.06l1,.56a2,2,0,0,0,1.84,0l2.2-1.27a.56.56,0,0,0,0-1.06l-1-.57A2.05,2.05,0,0,0,376.51,278.71Z" style="fill:#BA68C8"></path><path d="M379.54,280.17a1,1,0,0,1-.22.17l-2.2,1.26a2,2,0,0,1-1.84,0l-1-.56a1.92,1.92,0,0,1-.21-.16.53.53,0,0,1-.17-.34v.71a.65.65,0,0,0,.38.53l1,.56a2,2,0,0,0,1.84,0l2.2-1.27a.65.65,0,0,0,.39-.53v-.73A.51.51,0,0,1,379.54,280.17Z" style="fill:#BA68C8"></path><path d="M355.35,272.47l-2.2,1.27a.56.56,0,0,0,0,1.06l1,.56a2.05,2.05,0,0,0,1.84,0l2.21-1.26a.57.57,0,0,0,0-1.07l-1-.56A2.05,2.05,0,0,0,355.35,272.47Z" style="fill:#BA68C8"></path><path d="M358.38,273.93a1,1,0,0,1-.22.17l-2.2,1.26a2.05,2.05,0,0,1-1.84,0l-1-.56a1.92,1.92,0,0,1-.21-.16.55.55,0,0,1-.17-.35V275a.66.66,0,0,0,.38.54l1,.55a2,2,0,0,0,1.84,0l2.2-1.27a.65.65,0,0,0,.39-.53v-.74A.53.53,0,0,1,358.38,273.93Z" style="fill:#BA68C8"></path><path d="M361.61,276.07l-2.2,1.27a.56.56,0,0,0,0,1.06l1,.56a2,2,0,0,0,1.85,0l2.2-1.26a.56.56,0,0,0,0-1.06l-1-.57A2.05,2.05,0,0,0,361.61,276.07Z" style="fill:#BA68C8"></path><path d="M364.64,277.53a.92.92,0,0,1-.21.17l-2.2,1.26a2,2,0,0,1-1.84,0l-1-.56a1.92,1.92,0,0,1-.21-.16.61.61,0,0,1-.17-.34v.71a.65.65,0,0,0,.38.53l1,.56a2.05,2.05,0,0,0,1.84,0l2.2-1.27a.66.66,0,0,0,.38-.53v-.73A.53.53,0,0,1,364.64,277.53Z" style="fill:#BA68C8"></path><path d="M366.49,278.9l-2.2,1.26a.57.57,0,0,0,0,1.07l1,.56a2.05,2.05,0,0,0,1.84,0l2.21-1.27a.56.56,0,0,0,0-1.06l-1-.56A2,2,0,0,0,366.49,278.9Z" style="fill:#BA68C8"></path><path d="M369.52,280.36a.73.73,0,0,1-.22.16l-2.2,1.27a2.05,2.05,0,0,1-1.84,0l-1-.57a1.13,1.13,0,0,1-.21-.15.55.55,0,0,1-.17-.35v.71a.65.65,0,0,0,.38.53l1,.56a2,2,0,0,0,1.84,0l2.2-1.27a.65.65,0,0,0,.39-.53V280A.53.53,0,0,1,369.52,280.36Z" style="fill:#BA68C8"></path><path d="M371.31,281.71l-2.2,1.27c-.51.3-.51.77,0,1.06l1,.57a2.05,2.05,0,0,0,1.84,0l2.2-1.27a.56.56,0,0,0,0-1.06l-1-.57A2.05,2.05,0,0,0,371.31,281.71Z" style="fill:#BA68C8"></path><path d="M374.34,283.18a1.4,1.4,0,0,1-.22.16l-2.2,1.27a2.05,2.05,0,0,1-1.84,0l-1-.57a1.16,1.16,0,0,1-.21-.16.53.53,0,0,1-.17-.34v.71a.65.65,0,0,0,.38.53l1,.56a2,2,0,0,0,1.84,0l2.2-1.27a.64.64,0,0,0,.39-.53v-.73A.55.55,0,0,1,374.34,283.18Z" style="fill:#BA68C8"></path><g style="opacity:0.35000000000000003"><path d="M374,264.93a1,1,0,0,1-.22.16l-2.2,1.27a2.05,2.05,0,0,1-1.84,0l-1-.57a.83.83,0,0,1-.21-.16.51.51,0,0,1-.17-.34V266a.65.65,0,0,0,.38.53l1,.56a2,2,0,0,0,1.84,0l2.2-1.27a.65.65,0,0,0,.39-.54v-.73A.53.53,0,0,1,374,264.93Z"></path><path d="M380.24,268.53a.83.83,0,0,1-.21.16l-2.2,1.27a2.05,2.05,0,0,1-1.84,0l-1-.56a1.92,1.92,0,0,1-.21-.16.55.55,0,0,1-.17-.35v.71a.66.66,0,0,0,.38.54l1,.55a2,2,0,0,0,1.84,0l2.2-1.27a.66.66,0,0,0,.38-.53v-.74A.53.53,0,0,1,380.24,268.53Z"></path><path d="M385.12,271.35a1,1,0,0,1-.22.17l-2.2,1.26a2,2,0,0,1-1.84,0l-1-.56a1.92,1.92,0,0,1-.21-.16.53.53,0,0,1-.17-.34v.71a.65.65,0,0,0,.38.53l1,.56a2,2,0,0,0,1.84,0l2.2-1.27a.65.65,0,0,0,.39-.53V271A.51.51,0,0,1,385.12,271.35Z"></path><path d="M389.93,274.17a.74.74,0,0,1-.21.17l-2.2,1.26a2.05,2.05,0,0,1-1.84,0l-1-.56a1.92,1.92,0,0,1-.21-.16.55.55,0,0,1-.17-.35v.72a.66.66,0,0,0,.38.53l1,.56a2.05,2.05,0,0,0,1.84,0l2.2-1.27a.64.64,0,0,0,.38-.53v-.73A.49.49,0,0,1,389.93,274.17Z"></path><path d="M368.78,267.93a.73.73,0,0,1-.22.16l-2.2,1.27a2.05,2.05,0,0,1-1.84,0l-1-.56a1.92,1.92,0,0,1-.21-.16.55.55,0,0,1-.17-.35V269a.65.65,0,0,0,.38.53l1,.56a2,2,0,0,0,1.84,0l2.2-1.27a.65.65,0,0,0,.39-.53v-.74A.53.53,0,0,1,368.78,267.93Z"></path><path d="M375,271.53a1.2,1.2,0,0,1-.21.17l-2.2,1.26a2.05,2.05,0,0,1-1.84,0l-1-.56a1.92,1.92,0,0,1-.21-.16.61.61,0,0,1-.17-.35v.71a.66.66,0,0,0,.38.54l1,.55a2,2,0,0,0,1.84,0l2.2-1.27a.66.66,0,0,0,.38-.53v-.74A.53.53,0,0,1,375,271.53Z"></path><path d="M379.92,274.36a1.4,1.4,0,0,1-.22.16l-2.2,1.27a2.05,2.05,0,0,1-1.84,0l-1-.57a1.16,1.16,0,0,1-.21-.16.53.53,0,0,1-.17-.34v.71a.65.65,0,0,0,.38.53l1,.56a2,2,0,0,0,1.84,0l2.2-1.27a.64.64,0,0,0,.39-.53V274A.55.55,0,0,1,379.92,274.36Z"></path><path d="M384.73,277.17a.74.74,0,0,1-.21.17l-2.2,1.26a2,2,0,0,1-1.84,0l-1-.56a1.92,1.92,0,0,1-.21-.16.55.55,0,0,1-.17-.35v.72a.66.66,0,0,0,.38.53l1,.56a2.05,2.05,0,0,0,1.84,0l2.2-1.27a.65.65,0,0,0,.39-.53v-.73A.5.5,0,0,1,384.73,277.17Z"></path><path d="M363.58,270.93a.73.73,0,0,1-.22.16l-2.2,1.27a2.05,2.05,0,0,1-1.84,0l-1-.56a1.92,1.92,0,0,1-.21-.16.55.55,0,0,1-.17-.35V272a.65.65,0,0,0,.38.53l1,.56a2,2,0,0,0,1.84,0l2.2-1.27a.65.65,0,0,0,.39-.53v-.74A.53.53,0,0,1,363.58,270.93Z"></path><path d="M369.84,274.53a1.2,1.2,0,0,1-.21.17l-2.2,1.26a2.05,2.05,0,0,1-1.84,0l-1-.56a1.92,1.92,0,0,1-.21-.16.61.61,0,0,1-.17-.35v.72a.66.66,0,0,0,.38.53l1,.56a2.05,2.05,0,0,0,1.84,0l2.2-1.27a.66.66,0,0,0,.38-.53v-.73A.53.53,0,0,1,369.84,274.53Z"></path><path d="M374.72,277.36a1,1,0,0,1-.22.16l-2.2,1.27a2.05,2.05,0,0,1-1.84,0l-1-.57a.83.83,0,0,1-.21-.16.51.51,0,0,1-.17-.34v.71a.65.65,0,0,0,.38.53l1,.56a2,2,0,0,0,1.84,0l2.2-1.27a.67.67,0,0,0,.39-.54V277A.53.53,0,0,1,374.72,277.36Z"></path><path d="M379.54,280.17a1,1,0,0,1-.22.17l-2.2,1.26a2,2,0,0,1-1.84,0l-1-.56a1.92,1.92,0,0,1-.21-.16.53.53,0,0,1-.17-.34v.71a.65.65,0,0,0,.38.53l1,.56a2,2,0,0,0,1.84,0l2.2-1.27a.65.65,0,0,0,.39-.53v-.73A.51.51,0,0,1,379.54,280.17Z"></path><path d="M358.38,273.93a1,1,0,0,1-.22.17l-2.2,1.26a2.05,2.05,0,0,1-1.84,0l-1-.56a1.92,1.92,0,0,1-.21-.16.55.55,0,0,1-.17-.35V275a.66.66,0,0,0,.38.54l1,.55a2,2,0,0,0,1.84,0l2.2-1.27a.65.65,0,0,0,.39-.53v-.74A.53.53,0,0,1,358.38,273.93Z"></path><path d="M364.64,277.53a.92.92,0,0,1-.21.17l-2.2,1.26a2,2,0,0,1-1.84,0l-1-.56a1.92,1.92,0,0,1-.21-.16.61.61,0,0,1-.17-.34v.71a.65.65,0,0,0,.38.53l1,.56a2.05,2.05,0,0,0,1.84,0l2.2-1.27a.66.66,0,0,0,.38-.53v-.73A.53.53,0,0,1,364.64,277.53Z"></path><path d="M369.52,280.36a.73.73,0,0,1-.22.16l-2.2,1.27a2.05,2.05,0,0,1-1.84,0l-1-.57a1.13,1.13,0,0,1-.21-.15.55.55,0,0,1-.17-.35v.71a.65.65,0,0,0,.38.53l1,.56a2,2,0,0,0,1.84,0l2.2-1.27a.65.65,0,0,0,.39-.53V280A.53.53,0,0,1,369.52,280.36Z"></path><path d="M374.34,283.18a1.4,1.4,0,0,1-.22.16l-2.2,1.27a2.05,2.05,0,0,1-1.84,0l-1-.57a1.16,1.16,0,0,1-.21-.16.53.53,0,0,1-.17-.34v.71a.65.65,0,0,0,.38.53l1,.56a2,2,0,0,0,1.84,0l2.2-1.27a.64.64,0,0,0,.39-.53v-.73A.55.55,0,0,1,374.34,283.18Z"></path></g></g></g></g><g id="freepik--devices-1--inject-127"><g id="freepik--Keyboard--inject-127"><path id="freepik--shadow--inject-127" d="M297.07,243.76l-24.13,14.05a2.86,2.86,0,0,1-2.58,0l-67.88-39.14a.79.79,0,0,1,0-1.49l24.13-14.05a2.86,2.86,0,0,1,2.58,0l67.88,39.14A.79.79,0,0,1,297.07,243.76Z" style="opacity:0.2"></path><g id="freepik--keyboard--inject-127"><path d="M204.34,214.31a.88.88,0,0,1,.53-.74l21.48-12.4a2.82,2.82,0,0,1,2.56,0l65.55,37.91a.9.9,0,0,1,.53.74v2.25a.91.91,0,0,1-.53.74L273,255.21a2.87,2.87,0,0,1-2.57,0l-65.55-37.84a.9.9,0,0,1-.53-.74Z" style="fill:#263238"></path><path d="M273,252.9l21.47-12.35a.78.78,0,0,0,0-1.47l-65.55-37.91a2.82,2.82,0,0,0-2.56,0l-21.48,12.4a.78.78,0,0,0,0,1.48l65.55,37.84A2.87,2.87,0,0,0,273,252.9Z" style="fill:#37474f"></path><path d="M271.79,253.2v2.3a2.63,2.63,0,0,0,1.2-.29l21.46-12.4a.91.91,0,0,0,.54-.74v-2.26a.91.91,0,0,1-.54.74L273,252.9A2.63,2.63,0,0,1,271.79,253.2Z" style="fill:#263238"></path><path d="M208.32,214.47v0l2.13-1.23,2.88,1.67-2.14,1.26-2.88-1.66Zm3.32-1.92a0,0,0,0,1,0,0l2.12-1.23,2.27,1.31-2.14,1.27-2.26-1.31Zm.7,4.25s0,0,0,0l2.13-1.22,2.26,1.3-2.14,1.27-2.26-1.3Zm2.63-6.17,0,0,2.12-1.22,3.66,2.11-2.14,1.27L215,210.65Zm.08,3.89a0,0,0,0,1,0,0l2.12-1.23,1.8,1-2.14,1.27-1.79-1Zm.7,4.25s0,0,0,0l2.13-1.22,2.26,1.3L218,220.09l-2.26-1.3Zm2.25-2.55v0l2.13-1.22,1.8,1-2.14,1.27-1.8-1Zm.3-7.51s0,0,0,0l2.12-1.22,2.89,1.66-2.14,1.27-2.89-1.66Zm.86,12s0,0,0,0l2.13-1.23,16.36,9.45-2.14,1.27-16.36-9.45Zm.62-7.33a0,0,0,0,1,0,0l2.13-1.23,1.8,1-2.14,1.27-1.8-1Zm1.16,4.51,0,0,2.12-1.22,1.8,1L222.74,219l-1.79-1Zm.69-11.13a0,0,0,0,1,0,0l2.13-1.23,1.8,1-2.14,1.27-1.8-1Zm.7,4.25a0,0,0,0,1,0,0l2.13-1.23,1.8,1-2.14,1.27-1.8-1Zm.39,4.07s0,0,0,0l2.12-1.23,1.8,1-2.14,1.27-1.79-1Zm1.17,4.51v0l2.13-1.22,1.8,1-2.14,1.27-1.8-1Zm.68-11.13s0,0,0,0l2.12-1.23,1.8,1-2.14,1.27-1.79-1Zm.7,4.25s0,0,0,0l2.12-1.23,1.8,1-2.14,1.27-1.79-1Zm.39,4.07a0,0,0,0,1,0,0l2.13-1.23,1.8,1-2.15,1.27-1.79-1Zm0-12.35a0,0,0,0,1,0,0l2.13-1.23,2.26,1.31-2.14,1.27-2.26-1.31Zm1.16,16.86,0,0,2.12-1.22,1.8,1-2.14,1.27-1.79-1Zm.69-11.13v0l2.13-1.23,1.8,1-2.14,1.27-1.8-1Zm.7,4.25a0,0,0,0,1,0,0l2.13-1.23,1.8,1L230,215.49l-1.8-1Zm.39,4.07s0,0,0,0l2.12-1.23,1.8,1-2.14,1.27-1.8-1Zm1.17,4.51s0,0,0,0l2.13-1.22,1.8,1-2.14,1.27-1.8-1Zm.58-15.85a0,0,0,0,1,0,0l2.13-1.23,1.8,1-2.14,1.27-1.8-1Zm.1,4.72s0,0,0,0l2.12-1.23,1.8,1-2.14,1.27-1.79-1Zm.7,4.25s0,0,0,0l2.12-1.23,1.8,1L233,217.19l-1.79-1Zm.39,4.07a0,0,0,0,1,0,0L233.7,219l1.79,1-2.14,1.27-1.79-1Zm1.17,4.51a0,0,0,0,1,0,0l2.12-1.23,1.8,1-2.14,1.27-1.79-1Zm.58-15.85s0,0,0,0l2.12-1.23,1.8,1-2.14,1.27-1.79-1Zm.11,4.72v0l2.13-1.23,1.8,1-2.14,1.27-1.8-1Zm.7,4.25a0,0,0,0,1,0,0l2.13-1.23,1.8,1-2.14,1.27-1.8-1Zm.39,4.07a0,0,0,0,1,0,0l2.13-1.23,1.8,1L236.3,223l-1.8-1Zm1.17,4.51v0l2.13-1.23,1.8,1-2.14,1.27-1.8-1Zm.58-15.85a0,0,0,0,1,0,0l2.13-1.23,1.8,1-2.14,1.27-1.8-1Zm.1,4.72s0,0,0,0l2.12-1.23,1.8,1-2.14,1.27-1.79-1Zm.33,15.56s0,0,0,0l2.13-1.23,2.26,1.31-2.14,1.27-2.26-1.3Zm.37-11.31s0,0,0,0l2.12-1.23,1.8,1-2.14,1.27-1.79-1Zm.39,4.07s0,0,0,0l2.13-1.23,1.79,1-2.14,1.27-1.79-1Zm1.17,4.51,0,0,2.12-1.22,1.8,1-2.14,1.27-1.8-1Zm.58-15.85s0,0,0,0l2.12-1.23,1.8,1L241,213.32l-1.79-1Zm.11,4.72a.1.1,0,0,1,0,0l2.13-1.23,1.8,1L241.1,218l-1.8-1Zm.7,4.25a0,0,0,0,1,0,0l2.13-1.23,1.8,1-2.14,1.27-1.8-1Zm.09,11.58a0,0,0,0,1,0,0l2.13-1.23,2.26,1.31-2.14,1.27-2.26-1.31Zm.3-7.51a0,0,0,0,1,0,0l2.13-1.23,1.8,1-2.14,1.27-1.8-1Zm1.16,4.51s0,0,0,0l2.13-1.22,1.79,1-2.13,1.27-1.8-1Zm.69-11.13v0l2.13-1.23,1.8,1L244,219.74l-1.8-1Zm.7,4.25s0,0,0,0l2.12-1.23,1.8,1L244.74,224,243,223Zm.39,4.07s0,0,0,0l2.13-1.23,1.79,1-2.14,1.27-1.79-1Zm.09-12.3a0,0,0,0,1,0,0l2.13-1.23,1.8,1-2.14,1.27-1.8-1Zm.08,20.08a0,0,0,0,1,0,0l2.13-1.23,2.26,1.31-2.14,1.27-2.26-1.31Zm1-3.27a0,0,0,0,1,0,0l2.13-1.23,1.8,1-2.14,1.27-1.8-1Zm.68-11.13a0,0,0,0,1,0,0l2.13-1.22,1.8,1L247,221.44l-1.79-1Zm.71,4.25a0,0,0,0,1,0,0l2.13-1.23,1.8,1-2.14,1.27-1.8-1Zm.39,4.07a0,0,0,0,1,0,0l2.13-1.23,1.8,1-2.14,1.27-1.8-1Zm.08-12.3s0,0,0,0l2.12-1.23,1.8,1-2.14,1.27-1.79-1Zm.55,20.35a0,0,0,0,1,0,0l2.13-1.23,2.88,1.67-2.14,1.26-2.88-1.66Zm.53-3.54,0,0,2.13-1.23,5.67,3.27-2.14,1.27-5.67-3.27Zm.69-11.13v0l2.13-1.22,1.8,1-2.14,1.27-1.8-1Zm.7,4.25s0,0,0,0l2.12-1.23,1.8,1-2.14,1.27-1.79-1Zm.39,4.07s0,0,0,0l2.12-1.23,1.8,1L251,231.46l-1.79-1Zm.09-12.3a0,0,0,0,1,0,0l2.13-1.23,1.8,1-2.14,1.27-1.8-1Zm1.76,5.68,0,0,2.13-1.23,1.79,1-2.14,1.27-1.79-1Zm.48,15.65,0,0,2.13-1.23,1.8,1-2.15,1.27-1.79-1Zm.23-11.4a0,0,0,0,1,0,0l2.13-1.23,1.8,1-2.14,1.27-1.8-1Zm.39,4.07a0,0,0,0,1,0,0l2.13-1.23,1.64,1a1.09,1.09,0,0,0,.52.11,1.22,1.22,0,0,0,.55-.11l2.79-1.62,2.11,1.22-5.47,3.19-4.28-2.47Zm.08-12.3s0,0,0,0l2.12-1.23,1.8,1-2.14,1.27-1.79-1Zm1.77,5.68s0,0,0,0l2.13-1.22,1.8,1-2.14,1.27-1.8-1Zm.48,15.65,0,0,2.12-1.23,1.8,1-2.14,1.27-1.8-1Zm.22-11.4s0,0,0,0l2.12-1.23,1.8,1-2.14,1.27-1.8-1Zm1.76-7.49a0,0,0,0,1,0,0l2.13-1.23,1.8,1-2.14,1.27-1.8-1Zm.48,4.94,0,0,2.12-1.22,1.8,1-2.14,1.27-1.79-1Zm.48,15.65s0,0,0,0l2.13-1.23,1.79,1-2.14,1.27-1.79-1Zm.39-3.62a0,0,0,0,1,0,0L260,238l1.8,1-2.14,1.27-1.8-1ZM259.42,224s0,0,0,0l2.12-1.23,1.8,1L261.22,225l-1.79-1Zm.49,4.94v0l2.13-1.22,3.19,1.84-2.14,1.27-3.19-1.84Zm1.1,16a0,0,0,0,1,0,0l2.13-1.23,4.74,2.74-2.14,1.27L261,244.91Zm.53-11.22a0,0,0,0,1,0,0l2.13-1.23,1.8,1-2.14,1.27-1.8-1Zm.83-8a0,0,0,0,1,0,0l2.13-1.23,1.8,1-2.14,1.27-1.8-1Zm2,17.33a0,0,0,0,1,0,0l2.13-1.23,1.8,1L266.14,244l-1.8-1Zm.14-7.6s0,0,0,0l2.12-1.23,1.8,1-2.14,1.27-1.79-1Zm.39-3.63v0L267,230.5l1.8,1-2.14,1.27-1.8-1Zm.44-4.4s0,0,0,0l2.12-1.23,1.8,1-2.14,1.27-1.79-1Zm1.59,21a0,0,0,0,1,0,0L269,247l1.8,1-2.14,1.27-1.8-1Zm.38-3.62s0,0,0,0l2.12-1.23,1.8,1-2.14,1.27-1.79-1Zm.15-7.6a0,0,0,0,1,0,0l2.13-1.23,1.8,1-2.14,1.27-1.8-1Zm.24,4a0,0,0,0,1,0,0l2.13-1.23,1.79,1-2.13,1.27-1.8-1Zm.14-7.61,0,0L270,232.2l1.8,1-2.14,1.27-1.79-1Zm1.1-4s0,0,0,0l2.13-1.22,1.8,1-2.14,1.26-1.8-1Zm.93,20.58s0,0,0,0l5.45-3.15,1.8,1-5.47,3.19-1.79-1Zm.39-3.62a0,0,0,0,1,0,0l2.13-1.23,1.8,1L272,247.43l-1.8-1Zm.38-3.62s0,0,0,0l2.12-1.23,1.8,1-2.14,1.27-1.8-1Zm.15-7.61a0,0,0,0,1,0,0l2.13-1.23,1.8,1-2.14,1.27-1.8-1Zm.23,4,0,0,2.12-1.23,1.8,1-2.14,1.27-1.79-1Zm.86-8,0,0,2.12-1.22,1.8,1-2.14,1.26-1.79-1Zm1.71,13.34a0,0,0,0,1,0,0l2.13-1.23,1.79,1-2.13,1.27-1.8-1Zm.38-3.63a0,0,0,0,1,0,0l2.13-1.23,1.8,1-2.14,1.27-1.8-1Zm.38-3.62s0,0,0,0l2.12-1.22,1.8,1-2.14,1.26-1.79-1Zm.48-4.39s0,0,0,0l2.13-1.22,1.8,1-2.14,1.26-1.8-1Zm1.7,13.34a0,0,0,0,1,0,0L282,243l1.8,1-5.47,3.19-1.8-1Zm.38-3.63,0,0,2.12-1.23,1.8,1-2.14,1.27-1.79-1Zm.39-3.62v0l2.13-1.23,1.8,1L279.07,240l-1.8-1Zm2-4.52a0,0,0,0,1,0,0l.9-.53,1.8,1-.92.57-1.79-1Zm1,6.22s0,0,0,0l2.12-1.22,1.8,1L282,241.67l-1.79-1Zm2-4.52s0,0,0,0l.9-.53,1.8,1-.93.57-1.79-1Zm1,6.22v0l2.13-1.22,1.8,1L285,243.37l-1.8-1Zm1.95-4.52a0,0,0,0,1,0,0l.9-.53,1.8,1-.92.58-1.79-1Zm2.94,1.7s0,0,0,0l.9-.53,1.8,1-.93.57-1.79-1Z" style="fill:#BA68C8"></path></g></g><g id="freepik--Device--inject-127"><path id="freepik--shadow--inject-127" d="M349.11,243.58l11.76-6.79c1.76-1,1.76-2.67,0-3.69l-84.38-48.72a7.08,7.08,0,0,0-6.4,0l-11.76,6.79c-1.77,1-1.77,2.68,0,3.7l84.38,48.71A7.08,7.08,0,0,0,349.11,243.58Z" style="opacity:0.2"></path><g id="freepik--Monitor--inject-127"><path d="M294.5,228.37l-13-7.5a3.4,3.4,0,0,1-2-2.79c0-1,0-1.8,0-1.8l12.2-6.93a2.85,2.85,0,0,0,1.29-2.23v-16l22.64,13.08v16a2.89,2.89,0,0,1-1.29,2.24l-10.19,5.93A10.72,10.72,0,0,1,294.5,228.37Z" style="fill:#37474f"></path><path d="M310.22,223v1.8l4.15-2.4a2.84,2.84,0,0,0,1.29-2.23v-16l-4.31-2.49c-.09,1.1-.19,2.23-.28,3.33l3,1.75V219.3a2.85,2.85,0,0,1-1.29,2.23Z" style="fill:#263238"></path><path d="M314.1,219.3a2.89,2.89,0,0,1-1.29,2.24l-8.63,5a10.67,10.67,0,0,1-9.67,0l-13-7.5c-2.67-1.54-2.67-4,0-5.58l8.63-5a2.85,2.85,0,0,0,1.29-2.23V193.73l22.64,13.08Z" style="fill:#455a64"></path><path d="M287.54,210h0l2.63-1.52a2.85,2.85,0,0,0,1.29-2.23V193.73l22.64,13.08V219.3a2.89,2.89,0,0,1-1.29,2.24L310.23,223Z" style="fill:#37474f"></path><path d="M350.45,236.54a3.46,3.46,0,0,1-3.13-.06l-87.55-50.54a3.58,3.58,0,0,1-1.61-2.8V115.59a3,3,0,0,1,4.64-2.67l87.55,50.54a3.58,3.58,0,0,1,1.61,2.8V233.8A3.47,3.47,0,0,1,350.45,236.54Z" style="fill:#37474f"></path><path d="M347.32,236.48l-87.55-50.55a3.55,3.55,0,0,1-1.61-2.79V115.59c0-1,.72-1.44,1.61-.93l87.55,50.55a3.55,3.55,0,0,1,1.61,2.79v67.55C348.94,236.58,348.21,237,347.32,236.48Z" style="fill:#455a64"></path><path d="M345.91,226.1V169a2.13,2.13,0,0,0-1-1.68l-82.79-47.8c-.53-.31-1-.06-1,.56v57.1a2.16,2.16,0,0,0,1,1.68l82.79,47.79C345.48,227,345.91,226.72,345.91,226.1Z" style="fill:#e6e6e6"></path><path d="M301.74,204.19a3.34,3.34,0,0,1,1.52,2.62c0,1-.68,1.36-1.52.88a3.37,3.37,0,0,1-1.51-2.62C300.23,204.1,300.91,203.71,301.74,204.19Z" style="fill:#BA68C8"></path><path d="M351.49,164.66l-3,1.75a3.44,3.44,0,0,1,.48,1.59v67.75c0,.94-.6,1.36-1.38,1.05A3,3,0,0,0,352,234V166.26A3.35,3.35,0,0,0,351.49,164.66Z" style="fill:#263238"></path></g></g><g id="freepik--Mouse--inject-127"><path d="M287.78,266.24,296,271a9.08,9.08,0,0,0,9.12-.48l13.62-9.94c2.43-1.77,2.29-4.43-.31-5.93l-4.14-2.4a11.22,11.22,0,0,0-9.57-.29l-16.82,9.11C285.25,262.42,285.18,264.73,287.78,266.24Z" style="opacity:0.2"></path><path d="M319,256.25l-9.43,7.37-7,5.44a6.09,6.09,0,0,1-2.22.54,6,6,0,0,1-3.29-.7l-7.4-4.27h0l0,0a5.23,5.23,0,0,1-1.49-7.48l.22-.3a9.83,9.83,0,0,1,5.94-3.77l3.74-.75c6.07-1.23,11-1.83,11.62-1.43l9.26,5.36Z" style="fill:#37474f"></path><path d="M313.74,260.38l.53-.42-8.32-4.8,7.28-2.25-.74-.42-7.27,2.25-5-2.87-.94.18Z" style="fill:#BA68C8"></path><path d="M303.44,268.62l0,0a0,0,0,0,1,0,0l6.61-4.77,8.94-6.46v-1a.1.1,0,0,0,0-.08l-.06,0c-.66-.23-4.54.94-9.22,2.8l-3.1,1.23a9.37,9.37,0,0,0-2.64,1.57,9.83,9.83,0,0,0-3.59,7.61v.16a6.09,6.09,0,0,0,2.22-.54Z" style="fill:#263238"></path></g></g><g id="freepik--Chat--inject-127"><g id="freepik--chat--inject-127"><g id="freepik--speech-bubble--inject-127"><g id="freepik--shadow--inject-127" style="opacity:0.2"><path d="M267.38,160.4c0,1.54,1.09,2.53,2.43,3.3l28.61,16.53c1.33.77,2.43.15,2.43-1.41V166.66h0a4.85,4.85,0,0,0-2.42-4.19l-28.62-16.55a1.62,1.62,0,0,0-2.43,1.4h0Z"></path></g><g id="freepik--speech-bubble--inject-127"><path d="M264.3,150.43a3.33,3.33,0,0,1,1.48-2.49l.55-.31a3.28,3.28,0,0,1,3,0l28.21,16.3a3.3,3.3,0,0,1,1.49,2.59v13.85a3.27,3.27,0,0,1-1.49,2.58l-.55.32a3.26,3.26,0,0,1-3,0l.12.06-12.37-7.11a3,3,0,0,0-.67-.29l-2.26,2-.17.12-1.25.71-2.3,1.33h0a1.86,1.86,0,0,1-1.72-.1,3,3,0,0,1-1.16-2.4v-5.2a3.29,3.29,0,0,0-1.49-2.58l-5-2.86a3.33,3.33,0,0,1-1.49-2.59V150.54S264.3,150.47,264.3,150.43Z" style="fill:#BA68C8"></path><path d="M264.3,150.43a3.33,3.33,0,0,1,1.48-2.49l.55-.31a3.28,3.28,0,0,1,3,0l28.21,16.3a3.3,3.3,0,0,1,1.49,2.59v13.85a3.27,3.27,0,0,1-1.49,2.58l-.55.32a3.26,3.26,0,0,1-3,0l.12.06-12.37-7.11a3,3,0,0,0-.67-.29l-2.26,2-.17.12-1.25.71-2.3,1.33h0a1.86,1.86,0,0,1-1.72-.1,3,3,0,0,1-1.16-2.4v-5.2a3.29,3.29,0,0,0-1.49-2.58l-5-2.86a3.33,3.33,0,0,1-1.49-2.59V150.54S264.3,150.47,264.3,150.43Z" style="opacity:0.25"></path><path d="M264.29,150.53c0-.95.67-1.34,1.49-.86L294,166a3,3,0,0,1,.93.91l3.53-2a3,3,0,0,0-.93-.93l-28.21-16.3a3.26,3.26,0,0,0-3,0l-.56.31A3.33,3.33,0,0,0,264.29,150.53Z" style="fill:#BA68C8"></path><path d="M264.29,150.53c0-.95.67-1.34,1.49-.86L294,166a3,3,0,0,1,.93.91l3.53-2a3,3,0,0,0-.93-.93l-28.21-16.3a3.26,3.26,0,0,0-3,0l-.56.31A3.33,3.33,0,0,0,264.29,150.53Z" style="fill:#fff;opacity:0.45"></path><path d="M294.66,183.17c.48,0,.53-.54.53-.77V168.55a3,3,0,0,0-1.34-2.33l-28.22-16.29a1.11,1.11,0,0,0-.52-.16c-.48,0-.53.54-.53.77v13.85a3,3,0,0,0,1.35,2.33l4.94,2.86a3.58,3.58,0,0,1,1.64,2.84v5.2a2.73,2.73,0,0,0,1,2.15,1.84,1.84,0,0,0,.86.23h0a1,1,0,0,0,.69-.23l4.24-3.92a1.39,1.39,0,0,1,1-.33,3.27,3.27,0,0,1,1.57.44l12.25,7A1.18,1.18,0,0,0,294.66,183.17Z" style="fill:#fafafa"></path><path d="M265.11,150.06a.86.86,0,0,1,.38.13l28.21,16.28a2.74,2.74,0,0,1,1.2,2.08V182.4c0,.18,0,.48-.24.48a.82.82,0,0,1-.37-.13l-12.25-7a3.57,3.57,0,0,0-1.72-.49,1.74,1.74,0,0,0-1.21.42l-4.23,3.92a.73.73,0,0,1-.49.14,1.48,1.48,0,0,1-.71-.19,2.4,2.4,0,0,1-.88-1.89v-5.2a3.88,3.88,0,0,0-1.78-3.09l-4.95-2.86a2.74,2.74,0,0,1-1.2-2.08V150.54c0-.18,0-.48.24-.48m0-.58c-.49,0-.82.39-.82,1.06v13.85a3.33,3.33,0,0,0,1.49,2.59l5,2.86a3.29,3.29,0,0,1,1.49,2.58v5.2a3,3,0,0,0,1.16,2.4,2.1,2.1,0,0,0,1,.27,1.26,1.26,0,0,0,.9-.31l4.23-3.92a1.16,1.16,0,0,1,.8-.25,3,3,0,0,1,1.43.41l12.25,7a1.28,1.28,0,0,0,.66.2c.49,0,.83-.39.83-1.06V168.55A3.31,3.31,0,0,0,294,166l-28.21-16.28a1.34,1.34,0,0,0-.67-.2Z" style="fill:#e6e6e6"></path></g><path d="M273.08,160.82c-.95-.55-1.72-.11-1.72,1a3.8,3.8,0,0,0,1.72,3c.94.54,1.71.1,1.71-1A3.78,3.78,0,0,0,273.08,160.82Z" style="fill:#455a64"></path><path d="M279.94,164.77c-.95-.55-1.72-.1-1.72,1a3.8,3.8,0,0,0,1.72,3c.94.55,1.71.1,1.71-1A3.81,3.81,0,0,0,279.94,164.77Z" style="fill:#455a64"></path><path d="M286.8,168.73c-.95-.55-1.72-.11-1.72,1a3.8,3.8,0,0,0,1.72,3c.94.54,1.71.1,1.71-1A3.78,3.78,0,0,0,286.8,168.73Z" style="fill:#455a64"></path></g><g id="freepik--speech-bubble--inject-127"><g id="freepik--shadow--inject-127" style="opacity:0.2"><path d="M267.44,133.86c0,1.54,1.08,2.53,2.43,3.3l71.73,41.42c1.34.78,2.43.15,2.43-1.4V150.29h0a4.84,4.84,0,0,0-2.42-4.19l-71.74-41.44a1.62,1.62,0,0,0-2.43,1.4h0Z"></path></g><g id="freepik--speech-bubble--inject-127"><path d="M340.16,181.63l.55-.32a3.29,3.29,0,0,0,1.5-2.58V150.15a3.28,3.28,0,0,0-1.5-2.58l-71.34-41.21a3.33,3.33,0,0,0-3,0l-.55.32a3.31,3.31,0,0,0-1.49,2.59v28.57a3.29,3.29,0,0,0,1.49,2.58l48,27.74a6.45,6.45,0,0,1,2.22,2.42l5.53,11.7a5.79,5.79,0,0,0,1.9,2.23,3,3,0,0,0,2.66-.19l.37-.21a3.33,3.33,0,0,0,1.49-2.59v-3.45c0-.95.67-1.34,1.49-.86l7.66,4.42A3.33,3.33,0,0,0,340.16,181.63Z" style="fill:#BA68C8"></path><path d="M340.16,181.63l.55-.32a3.29,3.29,0,0,0,1.5-2.58V150.15a3.28,3.28,0,0,0-1.5-2.58l-71.34-41.21a3.33,3.33,0,0,0-3,0l-.55.32a3.31,3.31,0,0,0-1.49,2.59v28.57a3.29,3.29,0,0,0,1.49,2.58l48,27.74a6.45,6.45,0,0,1,2.22,2.42l5.53,11.7a5.79,5.79,0,0,0,1.9,2.23,3,3,0,0,0,2.66-.19l.37-.21a3.33,3.33,0,0,0,1.49-2.59v-3.45c0-.95.67-1.34,1.49-.86l7.66,4.42A3.33,3.33,0,0,0,340.16,181.63Z" style="opacity:0.25"></path><path d="M264.35,109.27c0-1,.66-1.34,1.49-.86l71.34,41.2a2.88,2.88,0,0,1,.93.91l3.53-2a2.72,2.72,0,0,0-.93-.92l-71.34-41.21a3.33,3.33,0,0,0-3,0l-.55.32A3.3,3.3,0,0,0,264.35,109.27Z" style="fill:#BA68C8"></path><path d="M264.35,109.27c0-1,.66-1.34,1.49-.86l71.34,41.2a2.88,2.88,0,0,1,.93.91l3.53-2a2.72,2.72,0,0,0-.93-.92l-71.34-41.21a3.33,3.33,0,0,0-3,0l-.55.32A3.3,3.3,0,0,0,264.35,109.27Z" style="fill:#fff;opacity:0.45"></path><path d="M323.93,184.34a.32.32,0,0,0,.29-.18,1.27,1.27,0,0,0,.16-.7v-7.33c0-.81.45-1.35,1.12-1.35a1.6,1.6,0,0,1,.81.24l11,6.36a1.11,1.11,0,0,0,.52.16c.48,0,.53-.54.53-.77V152.19a3,3,0,0,0-1.35-2.33l-71.34-41.2a1,1,0,0,0-.52-.17c-.48,0-.53.54-.53.78v28.57a3,3,0,0,0,1.35,2.33l48,27.74a6.78,6.78,0,0,1,2.35,2.55l5.52,11.69a5.64,5.64,0,0,0,1.79,2.11A.63.63,0,0,0,323.93,184.34Z" style="fill:#fafafa"></path><path d="M265.17,108.79a.83.83,0,0,1,.38.12l71.34,41.21a2.72,2.72,0,0,1,1.2,2.07v28.58c0,.18,0,.48-.24.48a.8.8,0,0,1-.38-.13l-11-6.36a2,2,0,0,0-1-.28,1.48,1.48,0,0,0-1.41,1.65v7.33c0,.39-.11.57-.15.59a.26.26,0,0,1-.14-.05,5.39,5.39,0,0,1-1.66-2l-5.53-11.7a7,7,0,0,0-2.46-2.67l-48-27.74a2.74,2.74,0,0,1-1.2-2.08V109.27c0-.18,0-.48.24-.48m0-.59c-.49,0-.82.39-.82,1.07v28.57a3.29,3.29,0,0,0,1.49,2.58l48,27.74a6.45,6.45,0,0,1,2.22,2.42l5.53,11.7a5.79,5.79,0,0,0,1.9,2.23.82.82,0,0,0,.42.13c.44,0,.75-.45.75-1.18v-7.33c0-.67.33-1.06.82-1.06a1.34,1.34,0,0,1,.67.2l11,6.36a1.34,1.34,0,0,0,.67.2c.49,0,.82-.39.82-1.06V152.19a3.29,3.29,0,0,0-1.49-2.58L265.84,108.4a1.45,1.45,0,0,0-.67-.2Z" style="fill:#e6e6e6"></path></g><path d="M270,124.46v-8c0-.27.16-.31.48-.13l.34.2a.78.78,0,0,1,.47.67v3.11l1.39.8V118c0-.27.16-.31.48-.13l.33.19a.79.79,0,0,1,.48.68v8c0,.27-.16.31-.48.13l-.33-.19a.79.79,0,0,1-.48-.68v-3.28l-1.39-.8v3.28c0,.27-.16.31-.47.13l-.34-.2A.78.78,0,0,1,270,124.46Z" style="fill:#455a64"></path><path d="M275.09,127.39v-5.83c0-.26.16-.31.49-.12l.22.14a.78.78,0,0,1,.49.68v5.82c0,.27-.16.31-.49.12l-.22-.13A.81.81,0,0,1,275.09,127.39Zm.05-7.26v-.76c0-.27.19-.3.55-.09s.57.47.57.74v.75c0,.27-.18.3-.55.09S275.14,120.39,275.14,120.13Z" style="fill:#455a64"></path><path d="M277.32,128.67v-1.15c0-.27.15-.32.47-.13l.27.15a.8.8,0,0,1,.47.68v1.15c0,.27-.16.32-.47.13l-.27-.15A.78.78,0,0,1,277.32,128.67Zm.24-2.36a.8.8,0,0,1-.08-.36v-5.23c0-.27.16-.31.47-.13l.38.22a1.13,1.13,0,0,1,.35.29.56.56,0,0,1,.12.33l-.41,5c0,.14-.05.23-.1.26s-.16,0-.32-.09l-.07,0A1,1,0,0,1,277.56,126.31Z" style="fill:#455a64"></path><path d="M270,136.34v-8.05c0-.27.16-.31.48-.13l.34.2a.78.78,0,0,1,.47.67v3.1l1.39.81v-3.11c0-.26.16-.31.48-.12l.33.19a.79.79,0,0,1,.48.68v8c0,.27-.16.31-.48.13l-.33-.19a.79.79,0,0,1-.48-.68V134.6l-1.39-.81v3.29c0,.26-.16.31-.47.13l-.34-.2A.79.79,0,0,1,270,136.34Z" style="fill:#455a64"></path><path d="M275.36,139a7.62,7.62,0,0,1-.43-2.76,4.4,4.4,0,0,1,.42-2.28c.28-.41.7-.46,1.25-.14a2.94,2.94,0,0,1,1.25,1.59,7.84,7.84,0,0,1,.42,2.75,4.4,4.4,0,0,1-.42,2.28c-.29.42-.7.47-1.25.15A2.88,2.88,0,0,1,275.36,139Zm1.58-.11a6.24,6.24,0,0,0,.11-1.43,8.07,8.07,0,0,0-.11-1.55.86.86,0,0,0-.34-.62c-.16-.09-.27,0-.34.23a6.26,6.26,0,0,0-.1,1.42,8.27,8.27,0,0,0,.1,1.55,1,1,0,0,0,.34.64C276.76,139.24,276.88,139.16,276.94,138.91Z" style="fill:#455a64"></path><path d="M279.84,142.34a.43.43,0,0,1-.1-.25l-.86-6.35a1.09,1.09,0,0,1,0-.19c0-.22.16-.23.5,0s.58.42.58.6l.22,3.23.08,1.44,0,0c0-.46.08-.92.13-1.38l.34-2.84c0-.08.05-.13.13-.13a.65.65,0,0,1,.3.11l.21.12a1,1,0,0,1,.29.24.44.44,0,0,1,.14.27l.34,3.26c0,.35.08.85.12,1.51l0,0,0-.35c0-.12,0-.24,0-.33l0-.67.22-3c0-.17.19-.15.54,0s.5.4.5.62a1,1,0,0,1,0,.18l-.85,5.36c0,.16-.12.19-.33.07l-.26-.15a.84.84,0,0,1-.26-.21.92.92,0,0,1-.09-.25l-.51-3.61q0-.33,0-.51a2.91,2.91,0,0,0,0-.49l0,0c0,.2,0,.35,0,.46s0,.41,0,.47l-.51,3q0,.13-.09.15a.36.36,0,0,1-.24-.08l-.27-.15A.72.72,0,0,1,279.84,142.34Z" style="fill:#455a64"></path><path d="M285.59,142.43q0-3.41,1.76-2.38a2.57,2.57,0,0,1,.57.44,3.36,3.36,0,0,1,.45.58,1.16,1.16,0,0,1,.17.53,1.37,1.37,0,0,1-.13.51c-.08.2-.16.27-.24.23a.7.7,0,0,1-.16-.19,3.47,3.47,0,0,0-.26-.33.87.87,0,0,0-.27-.23.3.3,0,0,0-.49.16,3.64,3.64,0,0,0-.17,1.37,5.71,5.71,0,0,0,.16,1.57,1.1,1.1,0,0,0,.48.72.69.69,0,0,0,.27.1h.2l.11,0h.15c.08.05.16.21.24.5a2.65,2.65,0,0,1,.12.66.33.33,0,0,1-.21.33,1,1,0,0,1-.49,0,1.53,1.53,0,0,1-.53-.2Q285.6,145.81,285.59,142.43Z" style="fill:#455a64"></path><path d="M289.45,147.5a4,4,0,0,1-.29-1.61c0-1.57.63-2,1.9-1.24v-.2a1.64,1.64,0,0,0-.12-.67.88.88,0,0,0-.38-.41.65.65,0,0,0-.32-.11,1.1,1.1,0,0,0-.31,0,.24.24,0,0,1-.17,0,.71.71,0,0,1-.18-.29,5.52,5.52,0,0,1-.17-.53,1.84,1.84,0,0,1-.07-.43.3.3,0,0,1,.19-.3.9.9,0,0,1,.5,0,2.44,2.44,0,0,1,.62.25,2.93,2.93,0,0,1,1.23,1.29,4.09,4.09,0,0,1,.39,1.82v2.29c0,.38,0,.68,0,.89s0,.44,0,.7a1.78,1.78,0,0,1,0,.29c0,.13-.11.17-.33.11a2.43,2.43,0,0,1-.59-.24.4.4,0,0,1-.18-.25,4.59,4.59,0,0,1-.11-.56.61.61,0,0,1-.34.31.62.62,0,0,1-.54-.09A2,2,0,0,1,289.45,147.5Zm1.43-.1a.33.33,0,0,0,.18-.2v-1.47c-.54-.31-.82-.1-.82.65a1.71,1.71,0,0,0,.11.62.73.73,0,0,0,.29.38A.23.23,0,0,0,290.88,147.4Z" style="fill:#455a64"></path><path d="M293.39,149.83v-4c0-.6,0-1,0-1.3s0-.43,0-.48.11-.2.34-.14a2.35,2.35,0,0,1,.6.24.41.41,0,0,1,.2.26,2,2,0,0,1,.07.39,2.6,2.6,0,0,0,0,.37.91.91,0,0,1,.45-.42.68.68,0,0,1,.62.08,1.75,1.75,0,0,1,.68.84,4,4,0,0,1,.23,1.44v4.55c0,.27-.16.31-.47.13l-.28-.16a.78.78,0,0,1-.47-.68v-4.12a1.76,1.76,0,0,0-.07-.52.51.51,0,0,0-.24-.3c-.14-.08-.28,0-.41.17v4.36c0,.14,0,.21-.11.24a.52.52,0,0,1-.35-.1l-.29-.17A.77.77,0,0,1,293.39,149.83Z" style="fill:#455a64"></path><path d="M298.87,153v-8c0-.28.16-.33.47-.15l.34.2a.8.8,0,0,1,.47.69v8c0,.28-.16.33-.47.15l-.34-.2A.8.8,0,0,1,298.87,153Z" style="fill:#455a64"></path><path d="M302.53,155.11V146.4c0-.26.15-.31.47-.12l.28.16a.78.78,0,0,1,.47.67v3.26a.89.89,0,0,1,.44-.36.67.67,0,0,1,.58.09,1.7,1.7,0,0,1,.69.85,3.73,3.73,0,0,1,.23,1.43v4.56c0,.26-.15.31-.47.12l-.28-.16a.78.78,0,0,1-.47-.67V152.1a1.52,1.52,0,0,0-.07-.52.5.5,0,0,0-.25-.3c-.15-.09-.28,0-.4.17v4.36c0,.27-.16.31-.47.13l-.28-.16A.78.78,0,0,1,302.53,155.11Z" style="fill:#455a64"></path><path d="M307,157.32a7.38,7.38,0,0,1-.45-2.76,4.14,4.14,0,0,1,.45-2.39c.29-.35.71-.37,1.25-.06a2.67,2.67,0,0,1,1.16,1.54,8.7,8.7,0,0,1,.36,2.72.59.59,0,0,1-.17.35c-.11.13-.19.18-.25.15L307.8,156a2.72,2.72,0,0,0,.19,1,1.19,1.19,0,0,0,.47.54.87.87,0,0,0,.32.11.93.93,0,0,0,.29,0,.34.34,0,0,1,.17,0,.68.68,0,0,1,.18.29,2.64,2.64,0,0,1,.17.52,1.58,1.58,0,0,1,.07.4c0,.19-.07.31-.22.35a.88.88,0,0,1-.51,0,2,2,0,0,1-.53-.21A3.23,3.23,0,0,1,307,157.32Zm1.67-2a6.94,6.94,0,0,0-.1-1.33.83.83,0,0,0-.33-.58c-.14-.08-.26,0-.34.17a4.67,4.67,0,0,0-.15,1.21Z" style="fill:#455a64"></path><path d="M310.6,158.33v-7.27c0-.26.16-.3.49-.12l.22.14a.78.78,0,0,1,.49.68v7.29a1,1,0,0,0,.05.34.32.32,0,0,0,.15.19s.05,0,.09,0a.12.12,0,0,1,.09,0c.07,0,.13.18.17.43a4.29,4.29,0,0,1,.07.63c0,.2-.08.31-.24.31a1,1,0,0,1-.53-.16A2.66,2.66,0,0,1,310.6,158.33Z" style="fill:#455a64"></path><path d="M313,163.73v-6.55c0-.39,0-.68,0-.89s0-.43-.05-.69a1.91,1.91,0,0,1,0-.28c0-.13.11-.17.33-.11a2.43,2.43,0,0,1,.59.24.48.48,0,0,1,.22.33,5,5,0,0,1,.11.63.74.74,0,0,1,.35-.43.52.52,0,0,1,.52.05,1.7,1.7,0,0,1,.63.76,5.32,5.32,0,0,1,.43,1.42,10.54,10.54,0,0,1,.16,1.95,5.12,5.12,0,0,1-.36,2.27.64.64,0,0,1-1,.3,1.83,1.83,0,0,1-.67-.75v2.45c0,.27-.16.31-.49.12l-.23-.13A.81.81,0,0,1,313,163.73Zm1.9-2.91a5.43,5.43,0,0,0,.12-1.41,7.72,7.72,0,0,0-.1-1.47c-.07-.34-.17-.54-.31-.62s-.29,0-.4.27v3.1a1,1,0,0,0,.33.37Q314.82,161.21,314.92,160.82Z" style="fill:#455a64"></path><path d="M321.38,160s0,.11,0,.22L320,167.88c0,.16-.18.16-.45,0l-.16-.1c-.31-.17-.46-.35-.46-.53a.88.88,0,0,1,0-.21l.46-2.37a.63.63,0,0,1-.19-.17.57.57,0,0,1-.1-.26l-.94-5.78c0-.16,0-.26,0-.29,0-.2.14-.21.41-.06l.35.21a.88.88,0,0,1,.29.22.59.59,0,0,1,.13.31l.3,2.72c0,.32.08.82.13,1.49l0,0c0-.28,0-.46.05-.54,0-.38.06-.65.09-.79l.32-2.39c0-.17.17-.17.43,0l.24.14C321.22,159.67,321.38,159.86,321.38,160Z" style="fill:#455a64"></path><path d="M322.31,166.14a8,8,0,0,1-.42-2.77,4.33,4.33,0,0,1,.42-2.27c.28-.42.7-.47,1.25-.15a3,3,0,0,1,1.25,1.59,7.86,7.86,0,0,1,.42,2.76,4.35,4.35,0,0,1-.42,2.27c-.29.42-.7.47-1.25.16A3,3,0,0,1,322.31,166.14Zm1.59-.12a6.24,6.24,0,0,0,.11-1.43,8,8,0,0,0-.11-1.54.92.92,0,0,0-.34-.63c-.16-.09-.27,0-.34.23a6.36,6.36,0,0,0-.1,1.43,8.14,8.14,0,0,0,.1,1.54,1,1,0,0,0,.34.64C323.72,166.35,323.83,166.27,323.9,166Z" style="fill:#455a64"></path><path d="M326.33,168.89a3.8,3.8,0,0,1-.24-1.44v-4.56c0-.27.16-.31.47-.13l.28.16a.79.79,0,0,1,.47.67v4.15a1.46,1.46,0,0,0,.07.51.53.53,0,0,0,.23.3c.15.08.29,0,.41-.17V164q0-.21.12-.24a.53.53,0,0,1,.35.1l.28.17a.78.78,0,0,1,.47.67v4c0,.59,0,1,0,1.3s0,.45,0,.51-.11.19-.34.13a2.78,2.78,0,0,1-.6-.25.41.41,0,0,1-.2-.26,2,2,0,0,1-.07-.39c0-.16,0-.28,0-.37a1,1,0,0,1-.43.43.63.63,0,0,1-.6-.07A1.71,1.71,0,0,1,326.33,168.89Z" style="fill:#455a64"></path><path d="M330.75,168.9a.52.52,0,0,1-.1-.33,3.23,3.23,0,0,1,.12-.93,2.73,2.73,0,0,1,.35-.73l.18-.22a3.5,3.5,0,0,0,.33-.48.82.82,0,0,0,.1-.4,1.08,1.08,0,0,0-.53-1,.46.46,0,0,0-.29-.09,1.09,1.09,0,0,0-.26,0c-.09,0-.14,0-.16,0a.62.62,0,0,1-.22-.32,4.63,4.63,0,0,1-.21-.56,1.63,1.63,0,0,1-.08-.44.42.42,0,0,1,.21-.42.87.87,0,0,1,.54,0,1.87,1.87,0,0,1,.63.24,3.21,3.21,0,0,1,1.2,1.25,3.69,3.69,0,0,1,.45,1.82,3,3,0,0,1-.1.82,1.53,1.53,0,0,1-.23.48,2.59,2.59,0,0,1-.37.39,2.36,2.36,0,0,0-.43.49,1.71,1.71,0,0,0-.21.7c0,.11-.06.18-.13.19a.53.53,0,0,1-.3-.1l-.19-.11A.88.88,0,0,1,330.75,168.9Zm-.2,2.38v-1.15c0-.27.16-.31.49-.12l.26.15a.83.83,0,0,1,.49.68V172c0,.27-.17.31-.49.12L331,172A.81.81,0,0,1,330.55,171.28Z" style="fill:#455a64"></path></g></g></g><g id="freepik--Chair--inject-127"><g id="freepik--chair--inject-127"><path d="M190.39,367.83l-12.95-74.66-8.19-.42,17,75.07h0a1.09,1.09,0,0,0,.54.74,3.23,3.23,0,0,0,2.92.14,1,1,0,0,0,.64-.87Z" style="fill:#263238"></path><path d="M68.63,280.91h-8.2L41.16,358.46h0a1,1,0,0,0,.59.9,3.2,3.2,0,0,0,2.92,0,1.13,1.13,0,0,0,.59-.7h0Z" style="fill:#37474f"></path><path d="M125.34,403.41,125,319.79l-8.19-.41,4.43,84h0a1.14,1.14,0,0,0,.55.74,3.23,3.23,0,0,0,2.92.14,1,1,0,0,0,.64-.87Z" style="fill:#37474f"></path><path d="M118.25,248.78h-8.2L97.32,328.93h0a1,1,0,0,0,.59.9,3.26,3.26,0,0,0,2.92,0,1.12,1.12,0,0,0,.59-.71h0Z" style="fill:#263238"></path><g id="freepik--chair--inject-127"><path d="M45,190.34a46.36,46.36,0,0,0-3.27,14.39c-.94,11,2.8,46.77,5,62.75h0c3.25,26.7,7.23,26.75,13,31.22,9.95,7.69,38.57,22.75,48,26.47,17.13,6.75,31.13-3.65,41.58-8.81A242,242,0,0,0,177,300c2.61-1.91,4-3.82,3.93-5.85,0-.79,0-4.08,0-4.92,0-2.58-2.27-5.34-7.06-8.45-8.85-5.74-40.83-24.39-53.22-31.25a.12.12,0,0,0-.1-.1c-9.53-5.79-15.27-45.13-21.87-66.06-.14-.45-.28-.88-.43-1.3s-.23-.66-.34-1c-.42-1.14-.85-2.18-1.3-3.14" style="fill:#BA68C8"></path><path d="M181,289.21c0-2.58-2.27-5.34-7.07-8.45-8.84-5.74-40.82-24.39-53.21-31.25a.12.12,0,0,0-.1-.1c-9.53-5.79-15.27-45.13-21.87-66.06a37.9,37.9,0,0,0-1.39-3.85,2.36,2.36,0,0,0-.12-.28c-.11-.28-.24-.56-.37-.85s-.13-.29-.19-.43h0a20.17,20.17,0,0,0-4.41-6.36,9.32,9.32,0,0,0-2.16-1.52c-1.07-.6-3.32-1.86-3.88-2.19-6.48-3.87-15,.78-25.56,6.58-6.58,3.61-12.2,7.9-15.62,15.89h0a46.36,46.36,0,0,0-3.27,14.39c-.94,11,2.8,46.77,5,62.75h0c3.25,26.7,7.23,26.75,13,31.22,9.95,7.69,38.57,22.75,48,26.47,17.13,6.75,31.13-3.65,41.58-8.81A242,242,0,0,0,177,300c2.61-1.91,4-3.82,3.93-5.85C181,293.34,181,290.05,181,289.21Z" style="fill:#BA68C8"></path><path d="M181,289.21c0-2.58-2.27-5.34-7.07-8.45-8.84-5.74-40.82-24.39-53.21-31.25a.12.12,0,0,0-.1-.1c-9.53-5.79-15.27-45.13-21.87-66.06a37.9,37.9,0,0,0-1.39-3.85,2.36,2.36,0,0,0-.12-.28c-.11-.28-.24-.56-.37-.85s-.13-.29-.19-.43h0a20.17,20.17,0,0,0-4.41-6.36,9.32,9.32,0,0,0-2.16-1.52c-1.07-.6-3.32-1.86-3.88-2.19-6.48-3.87-15,.78-25.56,6.58-6.58,3.61-12.2,7.9-15.62,15.89h0a46.36,46.36,0,0,0-3.27,14.39c-.94,11,2.8,46.77,5,62.75h0c3.25,26.7,7.23,26.75,13,31.22,9.95,7.69,38.57,22.75,48,26.47,17.13,6.75,31.13-3.65,41.58-8.81A242,242,0,0,0,177,300c2.61-1.91,4-3.82,3.93-5.85C181,293.34,181,290.05,181,289.21Z" style="fill:#fff;opacity:0.25"></path><path d="M149.38,311.39A241.8,241.8,0,0,0,177,295c5.94-4.32,5.39-8.73-3.12-14.25-11.82-7.67-60-35-60-35S53,281.7,55.6,288.34s40.33,27.18,52.21,31.86C124.94,326.94,139,316.54,149.38,311.39Z" style="fill:#BA68C8"></path><path d="M149.38,311.39A241.8,241.8,0,0,0,177,295c5.94-4.32,5.39-8.73-3.12-14.25-11.82-7.67-60-35-60-35S53,281.7,55.6,288.34s40.33,27.18,52.21,31.86C124.94,326.94,139,316.54,149.38,311.39Z" style="fill:#fff;opacity:0.6000000000000001"></path><path d="M90.08,170.06c-6.41-3.36-14.74,1.21-25,6.86-6.61,3.62-12.23,7.91-15.65,15.94L45,190.34c3.42-8,9-12.28,15.62-15.89,10.59-5.8,19.08-10.45,25.56-6.58C86.76,168.2,89,169.46,90.08,170.06Z" style="fill:#BA68C8"></path><path d="M90.08,170.06c-6.41-3.36-14.74,1.21-25,6.86-6.61,3.62-12.23,7.91-15.65,15.94L45,190.34c3.42-8,9-12.28,15.62-15.89,10.59-5.8,19.08-10.45,25.56-6.58C86.76,168.2,89,169.46,90.08,170.06Z" style="fill:#fff;opacity:0.5"></path><path d="M98.73,183.35c-.14-.45-2.35-8.13-6.49-11.77a10.42,10.42,0,0,0-7-2.67c-5.6,0-12.32,3.7-20.2,8q-1,.54-2,1.11c-.25.14-.49.29-.73.44l-.88.55-.64.41a36.3,36.3,0,0,0-4,3,7.65,7.65,0,0,0-.6.55A26.13,26.13,0,0,0,54,185.33l-.38.45-.45.55c-.15.19-.28.38-.43.58l-.42.58A27.72,27.72,0,0,0,50.76,190c-.06.11-.13.22-.18.33s-.25.47-.37.71-.35.71-.51,1.06a45.52,45.52,0,0,0-3.57,15.09c-1.53,18.13,4.68,78,10.91,83.21,0,0-1-5.87,11.58-13.76,8.52-5.36,14.51-9.86,23.6-14.33,22.17-10.88,28.38-12.92,28.38-12.92C111.07,243.62,105.33,204.28,98.73,183.35Z" style="fill:#BA68C8"></path><path d="M98.73,183.35c-.14-.45-2.35-8.13-6.49-11.77a10.42,10.42,0,0,0-7-2.67c-5.6,0-12.32,3.7-20.2,8q-1,.54-2,1.11c-.25.14-.49.29-.73.44l-.88.55-.64.41a36.3,36.3,0,0,0-4,3,7.65,7.65,0,0,0-.6.55A26.13,26.13,0,0,0,54,185.33l-.38.45-.45.55c-.15.19-.28.38-.43.58l-.42.58A27.72,27.72,0,0,0,50.76,190c-.06.11-.13.22-.18.33s-.25.47-.37.71-.35.71-.51,1.06a45.52,45.52,0,0,0-3.57,15.09c-1.53,18.13,4.68,78,10.91,83.21,0,0-1-5.87,11.58-13.76,8.52-5.36,14.51-9.86,23.6-14.33,22.17-10.88,28.38-12.92,28.38-12.92C111.07,243.62,105.33,204.28,98.73,183.35Z" style="fill:#fff;opacity:0.4"></path></g></g></g><g id="freepik--Character--inject-127"><g id="freepik--character--inject-127"><g id="freepik--Bottom--inject-127"><g id="freepik--bottom--inject-127"><polygon points="159.9 395.08 164.15 392.89 159.9 391.77 159.9 395.08" style="fill:#263238"></polygon><path d="M202.56,402.35s-51-22.17-51.55-18.73a5,5,0,0,0,.06,2.06l-.14-.18,1,6.38s3.67,3.05,7.93,3.2v-3.31a25.88,25.88,0,0,1,4.5,2.32c3.28,2.1,5.42,5.85,8.94,10.18,2.56,3.16,7.06,4.58,13.7,5.42,7.15.91,13.41-.57,15.15-2.52C203.58,405.61,202.83,402.8,202.56,402.35Z" style="fill:#263238"></path><path d="M201.15,401.19c-.5-.51-2.33-2.48-4.81-4.62-2.17-1.87-4.7-4.24-7.4-6.14a27.41,27.41,0,0,1-3.68-3,37.68,37.68,0,0,1-2.56-2.94,54.93,54.93,0,0,1-6.28-10.32c-.82-1.73-2.32-5.54-2-12.64.45-10.77,1.26-14.66,1.18-21.65l-24.08,3.69c.76,3.87,1.65,12.5,2.09,16.9.67,6.69,1.66,7.31-.83,14-.73,2-1.85,3.89-1.91,6-.11,3.43,2.62,6.35,5.63,8,2.51,1.35,5.37,1.9,7.8,3.34a24.87,24.87,0,0,1,6.4,6.13c1.74,2.16,3.15,4.73,5.56,6.23,2.68,1.67,5.21,2.16,8.29,2.74a44.22,44.22,0,0,0,11.09.39C200.87,406.85,204.75,404.87,201.15,401.19Z" style="fill:#ffbda7"></path><path d="M198.19,397.49c-2.21-1.81-5.35-4.4-9.13-7.31a9.43,9.43,0,0,0-7.84.84c-7.45,4.09-8.65,9.75-8.65,9.75a10.85,10.85,0,0,0,6.23,5.3c8.75,3.68,24.27,2.23,24.36-1.8C203.22,401.7,200.87,399.69,198.19,397.49Zm-45-24.41s-.49,1.33-1.77,3.94-1.5,5.2.2,7.76c2.23,3.39,4.94,4.4,7.69,5.09C161.63,382.19,156.26,374.69,153.22,373.08Z" style="fill:#37474f"></path><path d="M109.54,392.72c0,2.77-.65,11-.44,17.16.19,5.63,1.16,14.41-.35,21-1.54,6.71-7.28,13.73-14.89,7.42-4.71-3.92-6.56-8.55-7-16.65-.34-5.63,2-13.36,4.11-20.21,2.41-8,3.35-12.29,3.35-12.29Z" style="fill:#263238"></path><path d="M94.49,351c-.81,13.09.53,22.32.45,30.71A59.38,59.38,0,0,1,93.53,393c-1.21,5.33-3.22,12.74-4.08,16.19-1.19,4.83-2.08,7.87-.52,13.34a6.62,6.62,0,0,0,.53,1.23c2.25,4.53,8.13,8,10.05,7.53a3.27,3.27,0,0,0,3.32,1.23,3.88,3.88,0,0,0,.64-.14,4.16,4.16,0,0,0,.64-.24,6.54,6.54,0,0,0,3.25-4.06c.12-.36.23-.76.33-1.18,1.51-6.72.6-11.1.52-13.74-.09-3,.16-6.92.53-11.83s1.84-20.32,3.69-27.67c1.37-5.12,3.08-11.55,4.88-18.4Z" style="fill:#ffbda7"></path><path d="M88.17,415.47c4.73-2,18.33-2,20.37,4.67-.07,6.23-.11,10.46-4.16,15.8-5.37,7.11-12-.67-14.56-5.57S87.46,418.81,88.17,415.47Z" style="fill:#37474f"></path><path d="M117.08,166.57c-6.86,11.74-16.11,28.07-17,54.66C99,256.68,98.24,282.08,98,286.35s-3.16,12-5.92,33,.26,61.16.26,61.16,2.35,4.78,10.38,5.72c7.41.86,10.89-2.61,10.89-2.61s11.74-56.2,14.9-68.81,13.94-67.75,13.94-67.75l3.94,34s-2.58,11.55-.81,30.08,7.62,54.27,7.62,54.27,3.36,3.55,11.25,3.24c7.21-.29,10.84-4.28,10.84-4.28s6.91-70.53,7.48-91.46,0-73.2-5.77-104.36Z" style="fill:#37474f"></path><path d="M148.89,213.61l-6.46,33.5,3.94,34,.14-32.24,6.4-31.91c5.08-1.08,18.14-9.91,19.26-18.42C165.12,209.55,148.89,213.61,148.89,213.61ZM111.13,339.5q-3.15,16.32-5.89,32.71,4-16.14,7.6-32.35c2.42-10.82,4.71-21.61,7-32.49s4.91-35.6,6.12-46.62,2.18-22.05,3-33.1c-1.67,10.95-3.19,21.92-4.72,32.88s-4.43,35.58-6.59,46.4S113.2,328.63,111.13,339.5Zm62-78.53c.09,4.81.25,9.64,0,14.39s-.65,9.58-1,14.38L171,304.16q-1.14,14.43-1.93,28.89,2.08-14.34,3.66-28.72c1-9.61,2-19.17,2.64-28.88.23-9.75-.34-19.36-.94-29s-1.53-19.25-2.76-28.83l1,28.92C172.81,251.34,173,256.16,173.08,261Z" style="fill:#263238"></path></g></g><g id="freepik--Top--inject-127"><path d="M121.21,48.16c-6.62,3.54-9.49,8.5-9.83,21.88-.13,5.19,0,9.8-4.42,13.29-2.36,1.86-5.16,3.22-7.18,5.46-3.36,3.7-3.72,10.12,0,13.52A8.2,8.2,0,0,0,94.59,109a12.13,12.13,0,0,0,2.33,8.38,13.72,13.72,0,0,0,7.76,5.53c2.42.57,4.71-.37,7.17-.37,4.45,0,8.91.11,13.36.16l17.84.2c5.34.06,10.53,1,15-2.45a7.26,7.26,0,0,0,3.08-6c3.74-.56,7.67-1.78,10-4.79,3.15-4.16,2-10.34-1.13-14.54-1.46-2-3.28-3.69-4.71-5.7-3.09-4.34-1.9-9.47-1.63-14.46.07-1.35-.5-6.34.4-7.44,0,0,4.91-6,4.7-12.35a20.07,20.07,0,0,0-15.53-19.14C143.43,33.5,124.38,35.65,121.21,48.16Z" style="fill:#263238"></path><g id="freepik--Arm--inject-127"><path d="M219.38,110.62a34,34,0,0,0,2.16-7.29c1-6.41,2.79-8.07,6.76-13,.68-.85,1.37-1.69,2.06-2.53a11.62,11.62,0,0,0,1-1.25c.26-.42.5-.77,1.11-.6a1.83,1.83,0,0,1,1,.85,5.35,5.35,0,0,1,.32,4.28,26.13,26.13,0,0,1-1.86,4c-.51,1,.76.78,1.35.59,2.86-1,5.94-4.63,7.87-6.89a38,38,0,0,1,3.73-4.48,6,6,0,0,1,3.22-1.54c.82-.08,1.6.12,1.6,1.14a4.21,4.21,0,0,1-.62,1.79c-.59,1.18-1.1,2.24-.66,3.57a9.92,9.92,0,0,1,.78,2.5c.07,1.12-.51,2.18-.56,3.29.57.25.84,1.22.41,2.37a28.43,28.43,0,0,1-4.46,8.22,27.4,27.4,0,0,1-7.38,6.45,15.16,15.16,0,0,0-5.76,6.37c-1.87,3.81-3.43,8.18-7.22,17.07-5.36,12.57-6.9,17.88-11.89,21-3.71,2.31-7.68.28-17.65-4.45a239.69,239.69,0,0,1-29.46-16.81L163,101.49c5.73,1.27,11.38,6.67,19.44,14,15,13.67,20.56,18.09,20.56,18.09S218,113.72,219.38,110.62Z" style="fill:#ffbda7"></path><path d="M231.07,97.51c1.91,7-.77,11-2.39,13.49,0,0,3.61-2.26,4.23-5.86A9.21,9.21,0,0,0,231.07,97.51Z" style="fill:#f0997a"></path><path d="M210.92,122.29l2.64-3.8a23.89,23.89,0,0,0,5.36,7.62,16,16,0,0,0,8.05,4.13l-2.12,4.8a19.45,19.45,0,0,1-8.06-3.23C213.28,129.18,210.92,122.29,210.92,122.29Z" style="fill:#f0f0f0"></path><path d="M160.9,99.82c8.11,1,13.19,6.51,18.31,11.18,7.15,6.52,23.31,20.77,23.31,20.77l9.31-11.23a16.57,16.57,0,0,0,5,7.74,22.44,22.44,0,0,0,9,4.66s-5.14,13-8.47,19-6.79,9.52-16.25,6c-5.56-2.06-38.17-21.8-38.17-21.8Z" style="fill:#BA68C8"></path><path d="M202.52,131.77c-1.79,2.55-2.76,8.28-2.49,11.61-1.17-3.41-1.31-9.11,1.16-12.79Z" style="opacity:0.15"></path></g><path id="freepik--Chest--inject-127" d="M109.5,179.74c.74-5.39,4.5-6.19,2.67-19.06-.9-6.38-4.1-22.86-4.1-22.86s11-8.46,7.44-33.11L127.3,100l6.43-2.27,18,.75,9.23,2.52c3.16,2.73,8.95,7,13.61,13.6,6.73,9.49,7.94,20,1.07,27.76-.08,1.52.2,25,2,30.74.7,2.27,1.66,5.37.18,8.42C171.14,192.34,131.91,203.4,109.5,179.74Z" style="fill:#fafafa"></path><path d="M151.7,98.45l9.2,1.37c8.85,6.69,19.37,18.74,20,28a25.06,25.06,0,0,1-4.13,15.55s-.13,18.86,2,28.82,4.54,36.62,4.54,36.62.19,1.66-7.2,3.74c-2.26-12.78-7.87-59.66-7.56-70.91S169.06,112.63,151.7,98.45Z" style="fill:#BA68C8"></path><path d="M151.7,98.45l9.2,1.37c8.85,6.69,19.37,18.74,20,28a25.06,25.06,0,0,1-4.13,15.55s-.13,18.86,2,28.82,4.54,36.62,4.54,36.62.19,1.66-7.2,3.74c-2.26-12.78-7.87-59.66-7.56-70.91S169.06,112.63,151.7,98.45Z" style="opacity:0.30000000000000004"></path><path d="M169.92,146.89c.73-3,1.53-5.95,2.35-8.92s1.59-5.93,2.33-8.9a35.3,35.3,0,0,0,.84-4.46c.22-1.41-.78-2.58-1.77-3.69a41.15,41.15,0,0,0-7.07-5.7l-.23-.16,0-.28a15.08,15.08,0,0,0,0-4.88,12.62,12.62,0,0,0-1.7-4.59,14.53,14.53,0,0,0-3.46-3.54,22.67,22.67,0,0,0-4.34-2.55,20.91,20.91,0,0,1,4.53,2.28,13.53,13.53,0,0,1,3.74,3.5,13.31,13.31,0,0,1,2,4.77,14.76,14.76,0,0,1,.1,5.18l-.19-.43a39.75,39.75,0,0,1,7.3,5.78,11.07,11.07,0,0,1,1.44,1.92,3,3,0,0,1,.27.57,2.5,2.5,0,0,1,.2.62,4.29,4.29,0,0,1,0,1.28,35.87,35.87,0,0,1-.91,4.57c-.75,3-1.7,5.93-2.61,8.86S170.88,144,169.92,146.89Z" style="opacity:0.2"></path><path d="M127.3,100s3.87,5,9,16.69,10.07,22.36,10,33.2-3.64,66.95-3.64,66.95-15.55,2.34-29.64-3.33l1.15-21.72-5.33,20.7s-6.74-2.42-9.23-4.66c3.67-22.6,11.89-33.32,12.3-41.65.28-5.73-4.58-21.61-5.51-35.92a109.32,109.32,0,0,1,1.71-25.06Z" style="fill:#BA68C8"></path><path d="M127.3,100s3.87,5,9,16.69,10.07,22.36,10,33.2-3.64,66.95-3.64,66.95-15.55,2.34-29.64-3.33l1.15-21.72-5.33,20.7s-6.74-2.42-9.23-4.66c3.67-22.6,11.89-33.32,12.3-41.65.28-5.73-4.58-21.61-5.51-35.92a109.32,109.32,0,0,1,1.71-25.06Z" style="opacity:0.30000000000000004"></path><path d="M144.23,153.1a25.08,25.08,0,0,0-4.28-7.5,86.19,86.19,0,0,0-5.62-6.62c-1-1.08-2-2.14-2.94-3.19l-1.5-1.59c-.25-.28-.5-.53-.76-.84a2.21,2.21,0,0,1-.19-.26c-.07-.13-.13-.27-.19-.41a3.79,3.79,0,0,1-.08-.73,13.16,13.16,0,0,1,1.52-4.33c.69-1.31,1.43-2.57,2.23-3.81l.08.72-4.45-4.49-2.21-2.27-.55-.57-.27-.28a2.68,2.68,0,0,1-.38-.46,2.3,2.3,0,0,1-.11-1,7.53,7.53,0,0,1,.08-.83,49.51,49.51,0,0,1,1.52-6.22c.62-2,1.26-4.05,2-6-.51,2.06-1,4.11-1.49,6.18a61.63,61.63,0,0,0-1.18,6.18,3.78,3.78,0,0,0,0,1.33c-.08-.11,0,.06.15.14l.28.27.58.55,2.29,2.22,4.56,4.47.32.32-.25.4c-.76,1.21-1.47,2.47-2.12,3.74a12.89,12.89,0,0,0-1.44,3.83,3.06,3.06,0,0,0,0,.35.14.14,0,0,1,0,.09s.09.12.13.18c.2.25.46.52.7.79l1.47,1.6c1,1.08,2,2.16,2.91,3.26,1.89,2.23,3.72,4.52,5.38,6.93a34.73,34.73,0,0,1,2.25,3.77A15.81,15.81,0,0,1,144.23,153.1Z" style="opacity:0.2"></path><g id="freepik--arm--inject-127"><path d="M98,213.06c-1.48-1.55-3.37-2.9-4-5a3.68,3.68,0,0,1,.45-3.28,1.74,1.74,0,0,0,.38-.6,1.46,1.46,0,0,0,0-.59,4.05,4.05,0,0,1,.1-2.44,2.5,2.5,0,0,1,1.53-1.35,5.86,5.86,0,0,1,0-3.68c.45-1.41,1.87-2.56,2.85-1a12.77,12.77,0,0,1,1.15,2.42,28.92,28.92,0,0,1,1.53,6.49c.28,2.31,1,8.84-2.6,9.23C99,213.25,98.22,213.28,98,213.06Z" style="fill:#f0997a"></path><path d="M111.44,106.48c-13.73,2.9-15,7.25-23,18.73-7.86,11.33-18,27.15-20.39,32.71-3,6.88-3.65,9.51,3.8,16.61,3.84,3.66,9.18,8,14.61,12.92,4.3,3.89,9.46,8,13.62,12a3.74,3.74,0,0,1,1.35,3.74,24.44,24.44,0,0,0-.67,2.78,23.77,23.77,0,0,0,.37,3.65,3.18,3.18,0,0,1-1.38,3.19,3.54,3.54,0,0,1-1.74.24,12.27,12.27,0,0,0,3.41,1.76,5.11,5.11,0,0,0,3.75-.2c1.11-.57,1.93-1.65,3.12-2,.64-.21,1.33-.19,2-.37a3.27,3.27,0,0,0,1.68-1.15c.66-.88.92-2.11,1.87-2.66a13.58,13.58,0,0,1,1.48-.52,3.31,3.31,0,0,0,1.79-2.5,9,9,0,0,0-.14-3.19,80.58,80.58,0,0,0-1.92-8.41,8.31,8.31,0,0,0-1.42-2.57c-.66-.91-1.3-1.86-2-2.74-4.86-5.93-20.31-25.75-20.31-25.75l17-22.35S120.79,126,111.44,106.48Z" style="fill:#ffbda7"></path><path d="M91.28,162.73c-4.1,4.2-10.6,4.67-13,4.57a13.73,13.73,0,0,0,14.4-2.78Z" style="fill:#f28f8f"></path><path d="M82.6,184.09l3.86,3.36A15,15,0,0,0,95.93,182c4.3-5.15,4-8.92,4-8.92L95.41,168Z" style="fill:#f0f0f0"></path><path d="M111.59,104.24c-9.86,2.16-11.69,3.47-18.74,13.34s-18.95,28.71-22,33.57-7.72,13.28-5,17.5,17.33,16.57,17.33,16.57,5-.23,9.81-5.22c5-5.18,4.62-10.46,4.62-10.46l-5.43-6.82s15.21-19.6,18-23.23S118.89,123.64,111.59,104.24Z" style="fill:#BA68C8"></path><path d="M92.09,162.72c-2-2.23-6.8-5.84-10.33-6.46,3.7-.64,9.21,2,11.81,4.44Z" style="opacity:0.15"></path></g><g id="freepik--Head--inject-127"><path d="M119.26,69.86c1.73-2,5.28-2.9,7-.18,1.1,1.68,1.42,4.52,3.05,4.08,1-.27,1.34-1.46.95-3.63,2.11-.54,3.62-3.56,3.16-7-1.13-8.24,3.69-13.84,10.75-11.22,2.86-4.06,8.44-5.37,14-2.49,3.59,1.86,7.05,6.31,7.35,21.8.26,13.09-1.63,16.56-4.36,18.83-2.34,2-6.43,2.75-10.72,2.74l0,7.45s4.12,4.55,1.12,11.37a44.38,44.38,0,0,1-12.2-3.4c-8.68-4.22-10.36-8.54-10.36-8.54L129,80s-2.41,4.34-7,.86C118.24,78,116.68,72.87,119.26,69.86Z" style="fill:#ffbda7"></path><path d="M150.46,92.82c-8.22.05-15.3-2-17.75-5.71,0,0,.28,2.1,3.77,4.67,3.79,2.79,14,3.64,14,3.64Z" style="fill:#f0997a"></path><path d="M141.61,66A2.12,2.12,0,1,0,144,64.18,2.12,2.12,0,0,0,141.61,66Z" style="fill:#263238"></path><path d="M157,66.15a2.13,2.13,0,1,0,1.4-2.66A2.13,2.13,0,0,0,157,66.15Z" style="fill:#263238"></path><path d="M143.49,59.72l-4.3,2.9a2.72,2.72,0,0,1,.73-3.7A2.53,2.53,0,0,1,143.49,59.72Z" style="fill:#263238"></path><path d="M157.31,59.2l4.6,2.4A2.72,2.72,0,0,0,160.77,58,2.53,2.53,0,0,0,157.31,59.2Z" style="fill:#263238"></path><path d="M154.25,80.38l-7.22-2a3.93,3.93,0,0,0,2.67,4.75A3.66,3.66,0,0,0,154.25,80.38Z" style="fill:#b16668"></path><path d="M152,83a4.37,4.37,0,0,0-4.48-3.3,4.85,4.85,0,0,0-.55.09,3.88,3.88,0,0,0,2.76,3.31A3.51,3.51,0,0,0,152,83Z" style="fill:#f28f8f"></path><polygon points="149.67 63.64 151.81 75.69 158.3 72.82 149.67 63.64" style="fill:#f0997a"></polygon></g><path d="M126.87,66.68,120,67s-1.46-7.07-2.14-11.12c-.14-.78-.23-1.46-.27-2,0-.23,0-.46-.05-.69-.19-2.88.17-6.94,3.1-9.6a16.86,16.86,0,0,1,6.66-3.76,14.49,14.49,0,0,0-2.52,2.27c-.78.81-2.31,2.66-2.53,4.26a7.88,7.88,0,0,0,0,1.66c.09.74.23,1.62.44,2.58C123.83,56.24,126.87,66.68,126.87,66.68Z" style="fill:#455a64"></path><path d="M130.7,78.46a16.26,16.26,0,0,0-3.48-14.27,7,7,0,0,0-3-2,4.16,4.16,0,0,0-2.18-.06l-2.4.58c-1.64.41-3,1.89-3.64,4.18a16.27,16.27,0,0,0,3.49,14.27,6.89,6.89,0,0,0,3,2,4.1,4.1,0,0,0,2.19.07l2.37-.58C128.69,82.23,130,80.76,130.7,78.46Z" style="fill:#37474f"></path><path d="M122.49,83.15a6.89,6.89,0,0,1-3-2A16.27,16.27,0,0,1,116,66.93c1-3.25,3.24-4.87,5.83-4.11a7,7,0,0,1,3,1.95A16.26,16.26,0,0,1,128.31,79C127.37,82.29,125.08,83.91,122.49,83.15Z" style="fill:#263238"></path><path d="M127.81,78.89a15.65,15.65,0,0,0-3.36-13.76c-1.56-1.63-3.23-2.23-4.67-1.87l-1.19.29c-1.44.35-2.65,1.65-3.28,3.82a15.69,15.69,0,0,0,3.36,13.76c1.57,1.63,3.23,2.23,4.67,1.87l1.2-.29C126,82.36,127.18,81.06,127.81,78.89Z" style="fill:#f0f0f0"></path><path d="M123.25,65.43a15.63,15.63,0,0,1,3.37,13.75c-1.27,4.34-4.82,5.21-8,1.95a15.69,15.69,0,0,1-3.36-13.76C116.57,63,120.13,62.16,123.25,65.43Z" style="fill:#e0e0e0"></path><path d="M126.62,79.18a15.63,15.63,0,0,0-3.37-13.75c-1.56-1.63-3.22-2.23-4.66-1.88-.4.1-1.14.33-1.54.43-1.44.35-2.64,1.65-3.27,3.81a15.64,15.64,0,0,0,3.36,13.76c1.56,1.63,3.23,2.23,4.66,1.88.41-.1,1.14-.33,1.54-.43C124.78,82.65,126,81.35,126.62,79.18Z" style="fill:#BA68C8"></path><path d="M121.72,65.85a15.69,15.69,0,0,1,3.37,13.76c-1.27,4.34-4.83,5.21-8,1.94a15.64,15.64,0,0,1-3.36-13.76C115,63.46,118.6,62.59,121.72,65.85Z" style="fill:#fff;opacity:0.15"></path><path d="M119.77,69.94a8.22,8.22,0,0,1,1.77,7.22c-.66,2.28-2.53,2.74-4.17,1A8.23,8.23,0,0,1,115.6,71C116.27,68.68,118.13,68.22,119.77,69.94Z" style="fill:#263238"></path><path d="M121.11,72.61l-2.72,1.49L117.14,69a2.59,2.59,0,0,1,2.45,1A7.31,7.31,0,0,1,121.11,72.61Z" style="fill:#455a64"></path><path d="M121.36,77.21a2.61,2.61,0,0,1-1.72,2l-1.25-5.11,2.72-1.49A8,8,0,0,1,121.36,77.21Z" style="fill:#37474f"></path><path d="M119.64,79.21a2.62,2.62,0,0,1-2.46-1,7.4,7.4,0,0,1-1.52-2.63l2.73-1.5Z" style="fill:#455a64"></path><path d="M118.39,74.1l-2.73,1.5a7.93,7.93,0,0,1-.24-4.6,2.58,2.58,0,0,1,1.72-2Z" style="fill:#37474f"></path><path d="M165.56,73.72a24.12,24.12,0,0,1,4.51,2.81,4.22,4.22,0,0,1,.76,5.86l-1.77-.58s1.19-2,.24-3.27S165.53,76,165.53,76,165.56,74.36,165.56,73.72Z"></path><path d="M170.21,81.12c-1.38-.89-2.19-.06-3.53,2.3s-.71,3.13.49,3.78,2.27-.07,3.29-2C171.62,83,171.7,82.08,170.21,81.12Z" style="fill:#BA68C8"></path><path d="M170.21,81.12c-1.38-.89-2.19-.06-3.53,2.3s-.71,3.13.49,3.78,2.27-.07,3.29-2C171.62,83,171.7,82.08,170.21,81.12Z" style="opacity:0.1"></path></g></g></g><g id="freepik--speech-bubble-1--inject-127"><g id="freepik--speech-bubble--inject-127"><g id="freepik--speech-bubble--inject-127"><path d="M381.94,30.93a50.71,50.71,0,0,0-35.41,82.4l-5,14a1.52,1.52,0,0,0,1.92,2l15.2-5.18a50.71,50.71,0,1,0,23.33-93.22Z" style="fill:#fff"></path><path d="M390.12,132.94a51.19,51.19,0,0,1-31.63-7.77l-14.78,5a2.45,2.45,0,0,1-3.09-3.15l4.87-13.56a51.63,51.63,0,1,1,44.63,19.44Zm-31.39-9.8.38.24a49.77,49.77,0,1,0-11.86-10.63l.32.4-5.22,14.54a.59.59,0,0,0,.14.62.58.58,0,0,0,.63.15Z" style="fill:#455a64"></path></g><path d="M391.45,93.28a.43.43,0,0,0,.34.16h2.59a.6.6,0,0,0,.4-.16.66.66,0,0,0,.23-.38l.42-2h1.51a.6.6,0,0,0,.4-.16.63.63,0,0,0,.24-.37l.45-2.1a.46.46,0,0,0-.09-.36.39.39,0,0,0-.34-.16h-1.49l1.62-7.57a.51.51,0,0,0-.1-.38.43.43,0,0,0-.34-.14h-3.37a1,1,0,0,0-.41.06,1.82,1.82,0,0,0-.39.28l-7.47,7.44a1.64,1.64,0,0,0-.42.83l-.45,2.1a.43.43,0,0,0,.07.37.43.43,0,0,0,.34.16h6.6l-.43,2A.42.42,0,0,0,391.45,93.28Zm-1.74-5.53,3.62-3.63-.77,3.63ZM370.25,60.57a.82.82,0,0,0-.3,1.12l1.79,3.1a.83.83,0,0,0,.71.41.77.77,0,0,0,.41-.11.81.81,0,0,0,.3-1.12l-1.79-3.1A.81.81,0,0,0,370.25,60.57ZM381.89,58V63.5a.82.82,0,0,0,1.64,0V58a.82.82,0,0,0-1.64,0Zm-16.5,13.26-3.11-1.79a.82.82,0,0,0-1.12.3.83.83,0,0,0,.3,1.12l3.11,1.79a.77.77,0,0,0,.41.11.82.82,0,0,0,.41-1.53ZM355.13,97a6.24,6.24,0,0,1,.91-.54l-.06-.11a31.32,31.32,0,0,1-3.1-19.63A30.73,30.73,0,0,1,362,59.44a30.2,30.2,0,0,1,17.4-8,29.11,29.11,0,0,1,26.84,11.69l-6.54,0a.91.91,0,0,0-.37,1.73l14.89,6.72a2.58,2.58,0,0,0,3.62-2L420,53.27a.91.91,0,0,0-1.68-.58l-4.05,6.72a37.75,37.75,0,0,0-12.56-10.89,36.9,36.9,0,0,0-23.15-3.79,36.39,36.39,0,0,0-20.47,10.72,35.78,35.78,0,0,0-9.64,20.61A35.23,35.23,0,0,0,353,98c.16.27.33.54.5.8.05-.09.1-.19.16-.28A5.47,5.47,0,0,1,355.13,97Zm9.09-15.53H358.7a.82.82,0,1,0,0,1.64h5.52a.82.82,0,1,0,0-1.64Zm37.3,13.47a1.63,1.63,0,0,0,.36-.4l10-15.93a.48.48,0,0,0,.06-.4.28.28,0,0,0-.31-.21h-2.84a1,1,0,0,0-.62.19,1.58,1.58,0,0,0-.38.4l-10,15.93a.5.5,0,0,0-.05.41.31.31,0,0,0,.33.2h2.79A.93.93,0,0,0,401.52,94.9ZM423,79.81a.43.43,0,0,0-.34-.16h-9.42a.69.69,0,0,0-.63.54l-.45,2.08a.46.46,0,0,0,.08.38.4.4,0,0,0,.33.15h5.67l-6.4,10a.55.55,0,0,0-.05.39c0,.16.16.24.37.24h2.95a.57.57,0,0,0,.4-.15,2.08,2.08,0,0,0,.27-.32l6.38-10a6.27,6.27,0,0,0,.36-.58,1.76,1.76,0,0,0,.18-.42l.39-1.83A.43.43,0,0,0,423,79.81Zm-38.81,2.7a3.62,3.62,0,0,0-.8-1.54,4.32,4.32,0,0,0-1.52-1.1,5.38,5.38,0,0,0-2.17-.41,7.61,7.61,0,0,0-2.63.41A6.07,6.07,0,0,0,375.26,81a5.42,5.42,0,0,0-1.16,1.49,7.22,7.22,0,0,0-.62,1.65.32.32,0,0,0,.07.3.35.35,0,0,0,.29.13h2.42a1.35,1.35,0,0,0,.5-.09.77.77,0,0,0,.38-.36l.2-.37a2.06,2.06,0,0,1,.39-.48,2.25,2.25,0,0,1,.62-.42,1.93,1.93,0,0,1,.92-.19,1.65,1.65,0,0,1,.85.18,1,1,0,0,1,.41.42,1.11,1.11,0,0,1,.12.49,1.37,1.37,0,0,1,0,.39c0,.13-.06.26-.1.41a1.39,1.39,0,0,1-.2.43,2.49,2.49,0,0,1-.38.46,3.58,3.58,0,0,1-.64.51l-6.68,4.15a1.75,1.75,0,0,0-.55.53,1.93,1.93,0,0,0-.25.63l-.38,1.7a.47.47,0,0,0,.09.37.42.42,0,0,0,.35.16h10.2a.58.58,0,0,0,.4-.16.62.62,0,0,0,.23-.37l.45-2.09a.43.43,0,0,0-.08-.37.38.38,0,0,0-.33-.16h-4.55l3.09-1.81a7.61,7.61,0,0,0,1.3-1,5.54,5.54,0,0,0,.84-1,5.81,5.81,0,0,0,.51-1.07,8.25,8.25,0,0,0,.3-1.11A3.65,3.65,0,0,0,384.21,82.51ZM362.4,98.66a4.21,4.21,0,0,0-1.24-.69,4.57,4.57,0,0,0-1.61-.27,6.55,6.55,0,0,0-1.87.23,4.41,4.41,0,0,0-1.38.65,3.35,3.35,0,0,0-.92,1,3.58,3.58,0,0,0-.48,1.18,2.62,2.62,0,0,0,.26,2.07,3.12,3.12,0,0,0,2,1.13l1.33.3a8.42,8.42,0,0,1,.93.25,1.42,1.42,0,0,1,.52.29.37.37,0,0,1,.11.37.82.82,0,0,1-.66.61,4.67,4.67,0,0,1-1.33.17,2.12,2.12,0,0,1-.72-.1,1.71,1.71,0,0,1-.45-.24,1.53,1.53,0,0,1-.25-.28,1.17,1.17,0,0,0-.14-.19.66.66,0,0,0-.19-.15.89.89,0,0,0-.32,0H354a.4.4,0,0,0-.24.09.46.46,0,0,0-.14.23,2,2,0,0,0,.25,1.11,2.93,2.93,0,0,0,.83,1,4.23,4.23,0,0,0,1.3.69,4.82,4.82,0,0,0,1.64.27,6.63,6.63,0,0,0,3.47-.78,3.44,3.44,0,0,0,1.59-2.27,2.39,2.39,0,0,0-.35-2.13A4,4,0,0,0,360.2,102c-.52-.1-.95-.2-1.3-.28a5.37,5.37,0,0,1-.82-.26.89.89,0,0,1-.4-.28.49.49,0,0,1-.06-.38.69.69,0,0,1,.19-.37,1,1,0,0,1,.37-.22,1.69,1.69,0,0,1,.48-.12,4.9,4.9,0,0,1,.54,0,2.15,2.15,0,0,1,.63.08,1.66,1.66,0,0,1,.4.19,1.13,1.13,0,0,1,.22.22,1,1,0,0,0,.12.14,1.09,1.09,0,0,0,.22.18.7.7,0,0,0,.32.06H363a.36.36,0,0,0,.24-.1.44.44,0,0,0,.14-.22,1.89,1.89,0,0,0-.23-1A3.23,3.23,0,0,0,362.4,98.66ZM393.81,98c0-.12-.09-.18-.25-.18h-2a.64.64,0,0,0-.44.13.85.85,0,0,0-.2.24l-3.42,6.45-.66-6.45a.52.52,0,0,0-.11-.24c-.06-.09-.19-.13-.39-.13H384.6c-.3,0-.42.17-.39.52l1.05,9.16a.59.59,0,0,0,.66.59h2a1,1,0,0,0,.89-.59l4.95-9.16A.67.67,0,0,0,393.81,98Zm3.73-.18h-1.93a.48.48,0,0,0-.3.12.49.49,0,0,0-.17.28l-2,9.48a.33.33,0,0,0,.32.39h1.92a.48.48,0,0,0,.31-.12.45.45,0,0,0,.16-.27l2-9.48a.31.31,0,0,0-.07-.28A.3.3,0,0,0,397.54,97.84Zm-15.32.9a3.17,3.17,0,0,0-1.23-.67,5.41,5.41,0,0,0-1.59-.23h-3.83a.48.48,0,0,0-.3.12.49.49,0,0,0-.17.28l-2,9.48a.33.33,0,0,0,.32.39h1.92a.48.48,0,0,0,.31-.12.45.45,0,0,0,.16-.27l.68-3.14H378l.95,3.14a1,1,0,0,0,.15.26.46.46,0,0,0,.39.13h1.85a.36.36,0,0,0,.24-.09.4.4,0,0,0,.14-.23.43.43,0,0,0,0-.16l-1.08-3.49a4.28,4.28,0,0,0,1.52-1,3.68,3.68,0,0,0,.84-1.75,2.93,2.93,0,0,0,0-1.51A2.42,2.42,0,0,0,382.22,98.74Zm-2,2.46a1.14,1.14,0,0,1-.59.85,2.25,2.25,0,0,1-1.07.24H377l.46-2.17h1.66a1.66,1.66,0,0,1,1,.23A.75.75,0,0,1,380.27,101.2Zm26.82-2.45a4.22,4.22,0,0,0-1.35-.77,4.69,4.69,0,0,0-1.63-.28,6.12,6.12,0,0,0-2.06.31,4.83,4.83,0,0,0-1.53.86,4.78,4.78,0,0,0-1,1.27,6,6,0,0,0-.61,1.53c-.11.42-.22.86-.32,1.32s-.18.89-.24,1.29a3.19,3.19,0,0,0,.1,1.54,3.36,3.36,0,0,0,.75,1.26,3.52,3.52,0,0,0,1.28.86,4.56,4.56,0,0,0,1.73.32,6.33,6.33,0,0,0,1.95-.29,5.35,5.35,0,0,0,1.55-.77,4.29,4.29,0,0,0,1.7-2.55.24.24,0,0,0-.05-.23.26.26,0,0,0-.21-.09h-1.92a.53.53,0,0,0-.35.09,1.77,1.77,0,0,0-.24.33,3.52,3.52,0,0,1-.25.38,1.82,1.82,0,0,1-.4.38,2.16,2.16,0,0,1-.59.28,2.57,2.57,0,0,1-.84.12,2.07,2.07,0,0,1-.81-.14,1.18,1.18,0,0,1-.47-.37,1.06,1.06,0,0,1-.21-.55,2.3,2.3,0,0,1,0-.64c0-.13.05-.31.08-.54s.09-.46.14-.7.11-.47.17-.7.1-.4.14-.53a2.56,2.56,0,0,1,.27-.64,1.74,1.74,0,0,1,.43-.54,2.21,2.21,0,0,1,.63-.38,2.48,2.48,0,0,1,.87-.14,2.21,2.21,0,0,1,.8.12,1.21,1.21,0,0,1,.46.29.79.79,0,0,1,.24.37,3.61,3.61,0,0,1,.1.38.71.71,0,0,0,.08.33c0,.07.14.1.31.1h1.92a.36.36,0,0,0,.25-.1.39.39,0,0,0,.15-.23,2.38,2.38,0,0,0-.13-1.4A3.08,3.08,0,0,0,407.09,98.75Zm10.44-.91h-6.84a.48.48,0,0,0-.3.12.43.43,0,0,0-.16.28l-2,9.48a.29.29,0,0,0,.07.27.3.3,0,0,0,.25.12h7a.44.44,0,0,0,.3-.12.46.46,0,0,0,.17-.27l.33-1.56a.38.38,0,0,0,0-.28.3.3,0,0,0-.25-.12h-4.64l.34-1.64h4.19a.48.48,0,0,0,.31-.12.44.44,0,0,0,.18-.27l.33-1.56a.34.34,0,0,0-.06-.28.31.31,0,0,0-.26-.12h-4.19l.33-1.58H417a.48.48,0,0,0,.31-.12.46.46,0,0,0,.18-.28l.33-1.55a.34.34,0,0,0-.06-.28A.32.32,0,0,0,417.53,97.84ZM373.25,98a.31.31,0,0,0-.26-.12h-6.83a.51.51,0,0,0-.47.4l-2,9.48a.29.29,0,0,0,.07.27.31.31,0,0,0,.26.12h6.95a.44.44,0,0,0,.3-.12.46.46,0,0,0,.17-.27l.34-1.56a.34.34,0,0,0-.06-.28.3.3,0,0,0-.25-.12H366.8l.34-1.64h4.19a.48.48,0,0,0,.31-.12.44.44,0,0,0,.18-.27l.34-1.56a.34.34,0,0,0-.07-.28.31.31,0,0,0-.26-.12h-4.19l.34-1.58h4.51a.48.48,0,0,0,.31-.12.46.46,0,0,0,.18-.28l.34-1.55A.38.38,0,0,0,373.25,98Z" style="fill:#BA68C8"></path></g></g></svg>
